<svg xmlns="http://www.w3.org/2000/svg" xmlns:xlink="http://www.w3.org/1999/xlink" width="64" zoomAndPan="magnify" viewBox="0 0 48 48" height="64" preserveAspectRatio="xMidYMid meet" version="1.2"><defs><clipPath id="278e2abd37"><path d="M 32.492188 21.488281 L 33.964844 21.488281 L 33.964844 22.957031 L 32.492188 22.957031 Z M 32.492188 21.488281 "/></clipPath><clipPath id="28d3a668bc"><path d="M 32.492188 22 L 33.964844 22 L 33.964844 22.957031 L 32.492188 22.957031 Z M 32.492188 22 "/></clipPath><clipPath id="11f56b1091"><path d="M 11.410156 16 L 36.390625 16 L 36.390625 37.777344 L 11.410156 37.777344 Z M 11.410156 16 "/></clipPath><clipPath id="19cd0949fc"><path d="M 13 9.125 L 35 9.125 L 35 24 L 13 24 Z M 13 9.125 "/></clipPath></defs><g id="c39145fdfb"><g clip-rule="nonzero" clip-path="url(#278e2abd37)"><path style=" stroke:none;fill-rule:nonzero;fill:#31d1e6;fill-opacity:1;" d="M 32.828125 21.488281 C 32.804688 21.488281 32.78125 21.507812 32.78125 21.535156 L 32.78125 21.582031 L 32.6875 21.582031 C 32.582031 21.582031 32.492188 21.671875 32.492188 21.777344 L 32.492188 22.640625 C 32.492188 22.746094 32.582031 22.832031 32.6875 22.832031 L 33.644531 22.832031 C 33.75 22.832031 33.835938 22.746094 33.835938 22.640625 L 33.835938 21.777344 C 33.835938 21.671875 33.75 21.582031 33.644531 21.582031 L 33.550781 21.582031 L 33.550781 21.535156 C 33.550781 21.507812 33.527344 21.488281 33.5 21.488281 C 33.476562 21.488281 33.453125 21.507812 33.453125 21.535156 L 33.453125 21.582031 L 33.214844 21.582031 L 33.214844 21.535156 C 33.214844 21.507812 33.191406 21.488281 33.164062 21.488281 C 33.140625 21.488281 33.117188 21.507812 33.117188 21.535156 L 33.117188 21.582031 L 32.878906 21.582031 L 32.878906 21.535156 C 32.878906 21.507812 32.855469 21.488281 32.828125 21.488281 Z M 32.6875 21.679688 L 32.78125 21.679688 L 32.78125 21.726562 C 32.78125 21.753906 32.804688 21.777344 32.828125 21.777344 C 32.855469 21.777344 32.878906 21.753906 32.878906 21.726562 L 32.878906 21.679688 L 33.117188 21.679688 L 33.117188 21.726562 C 33.117188 21.753906 33.140625 21.777344 33.164062 21.777344 C 33.191406 21.777344 33.214844 21.753906 33.214844 21.726562 L 33.214844 21.679688 L 33.453125 21.679688 L 33.453125 21.726562 C 33.453125 21.753906 33.476562 21.777344 33.5 21.777344 C 33.527344 21.777344 33.550781 21.753906 33.550781 21.726562 L 33.550781 21.679688 L 33.644531 21.679688 C 33.699219 21.679688 33.742188 21.722656 33.742188 21.777344 L 33.742188 21.871094 L 32.589844 21.871094 L 32.589844 21.777344 C 32.589844 21.722656 32.632812 21.679688 32.6875 21.679688 Z M 32.589844 21.96875 L 33.742188 21.96875 L 33.742188 22.640625 C 33.742188 22.691406 33.699219 22.734375 33.644531 22.734375 L 32.6875 22.734375 C 32.632812 22.734375 32.589844 22.691406 32.589844 22.640625 Z M 32.589844 21.96875 "/></g><g clip-rule="nonzero" clip-path="url(#28d3a668bc)"><path style=" stroke:none;fill-rule:nonzero;fill:#31d1e6;fill-opacity:1;" d="M 33.367188 22.128906 L 33.113281 22.425781 L 32.960938 22.269531 C 32.941406 22.25 32.910156 22.25 32.890625 22.269531 C 32.871094 22.289062 32.871094 22.320312 32.890625 22.335938 L 33.082031 22.527344 C 33.101562 22.550781 33.136719 22.546875 33.152344 22.527344 L 33.441406 22.191406 C 33.460938 22.171875 33.457031 22.140625 33.4375 22.121094 C 33.414062 22.105469 33.390625 22.105469 33.367188 22.128906 Z M 33.367188 22.128906 "/></g><g clip-rule="nonzero" clip-path="url(#11f56b1091)"><path style=" stroke:none;fill-rule:nonzero;fill:#31d1e6;fill-opacity:1;" d="M 34.578125 35.988281 L 34.578125 16.628906 L 28.609375 19.871094 L 28.609375 35.988281 L 26.9375 35.988281 L 26.9375 23.535156 L 20.867188 26.492188 L 20.867188 35.988281 L 19.191406 35.988281 L 19.191406 29.539062 L 13.226562 32.375 L 13.226562 35.988281 L 11.410156 35.988281 L 11.410156 37.660156 L 36.390625 37.660156 L 36.390625 35.988281 Z M 34.578125 35.988281 "/></g><g clip-rule="nonzero" clip-path="url(#19cd0949fc)"><path style=" stroke:none;fill-rule:nonzero;fill:#31d1e6;fill-opacity:1;" d="M 23.371094 21 C 24.648438 20.355469 25.84375 19.601562 26.9375 18.757812 C 27.527344 18.304688 28.085938 17.820312 28.609375 17.316406 C 29.613281 16.351562 30.5 15.296875 31.246094 14.171875 L 32.507812 12.277344 L 32.84375 13.726562 L 34.472656 13.351562 L 33.5 9.132812 L 29.28125 10.105469 L 29.65625 11.734375 L 31.078125 11.40625 L 30.902344 11.667969 L 29.855469 13.246094 C 28.144531 15.816406 25.644531 17.980469 22.617188 19.507812 C 20.101562 20.777344 17.367188 21.535156 14.632812 21.734375 C 14.152344 21.769531 13.675781 21.789062 13.195312 21.789062 L 13.195312 23.460938 C 15.203125 23.460938 17.226562 23.175781 19.191406 22.621094 C 19.496094 22.539062 19.800781 22.445312 20.101562 22.347656 C 21.21875 21.984375 22.3125 21.535156 23.371094 21 Z M 23.371094 21 "/></g></g></svg>