<svg xmlns="http://www.w3.org/2000/svg" xmlns:xlink="http://www.w3.org/1999/xlink" width="64" zoomAndPan="magnify" viewBox="0 0 48 48" height="64" preserveAspectRatio="xMidYMid meet" version="1.2"><defs><clipPath id="d250896855"><path d="M 24 32.765625 L 25.46875 32.765625 L 25.46875 34 L 24 34 Z M 24 32.765625 "/></clipPath><clipPath id="d483cd0f50"><path d="M 29 30 L 40.875 30 L 40.875 39.96875 L 29 39.96875 Z M 29 30 "/></clipPath><clipPath id="219f18b31f"><path d="M 7.078125 30 L 19 30 L 19 39.96875 L 7.078125 39.96875 Z M 7.078125 30 "/></clipPath><clipPath id="2fe6725a13"><path d="M 16 30 L 32 30 L 32 39.96875 L 16 39.96875 Z M 16 30 "/></clipPath><clipPath id="b97f89c77b"><path d="M 12 4.703125 L 32 4.703125 L 32 21 L 12 21 Z M 12 4.703125 "/></clipPath></defs><g id="05123ecb96"><g clip-rule="nonzero" clip-path="url(#d250896855)"><path style=" stroke:none;fill-rule:nonzero;fill:#31d1e6;fill-opacity:1;" d="M 24.292969 32.765625 C 24.269531 32.765625 24.25 32.785156 24.25 32.808594 L 24.25 32.851562 L 24.167969 32.851562 C 24.074219 32.851562 24 32.925781 24 33.019531 L 24 33.769531 C 24 33.863281 24.074219 33.9375 24.167969 33.9375 L 25.003906 33.9375 C 25.09375 33.9375 25.171875 33.863281 25.171875 33.769531 L 25.171875 33.019531 C 25.171875 32.925781 25.09375 32.851562 25.003906 32.851562 L 24.921875 32.851562 L 24.921875 32.808594 C 24.921875 32.785156 24.902344 32.765625 24.878906 32.765625 C 24.855469 32.765625 24.835938 32.785156 24.835938 32.808594 L 24.835938 32.851562 L 24.628906 32.851562 L 24.628906 32.808594 C 24.628906 32.785156 24.609375 32.765625 24.585938 32.765625 C 24.5625 32.765625 24.542969 32.785156 24.542969 32.808594 L 24.542969 32.851562 L 24.335938 32.851562 L 24.335938 32.808594 C 24.335938 32.785156 24.316406 32.765625 24.292969 32.765625 Z M 24.167969 32.933594 L 24.25 32.933594 L 24.25 32.976562 C 24.25 33 24.269531 33.019531 24.292969 33.019531 C 24.316406 33.019531 24.335938 33 24.335938 32.976562 L 24.335938 32.933594 L 24.542969 32.933594 L 24.542969 32.976562 C 24.542969 33 24.5625 33.019531 24.585938 33.019531 C 24.609375 33.019531 24.628906 33 24.628906 32.976562 L 24.628906 32.933594 L 24.835938 32.933594 L 24.835938 32.976562 C 24.835938 33 24.855469 33.019531 24.878906 33.019531 C 24.902344 33.019531 24.921875 33 24.921875 32.976562 L 24.921875 32.933594 L 25.003906 32.933594 C 25.050781 32.933594 25.085938 32.972656 25.085938 33.019531 L 25.085938 33.101562 L 24.082031 33.101562 L 24.082031 33.019531 C 24.082031 32.972656 24.121094 32.933594 24.167969 32.933594 Z M 24.082031 33.183594 L 25.085938 33.183594 L 25.085938 33.769531 C 25.085938 33.816406 25.050781 33.855469 25.003906 33.855469 L 24.167969 33.855469 C 24.121094 33.855469 24.082031 33.816406 24.082031 33.769531 Z M 24.082031 33.183594 "/></g><path style=" stroke:none;fill-rule:nonzero;fill:#31d1e6;fill-opacity:1;" d="M 24.761719 33.324219 L 24.542969 33.585938 L 24.40625 33.449219 C 24.390625 33.433594 24.363281 33.433594 24.347656 33.449219 C 24.332031 33.464844 24.332031 33.492188 24.347656 33.507812 L 24.515625 33.675781 C 24.53125 33.691406 24.558594 33.691406 24.574219 33.671875 L 24.828125 33.378906 C 24.839844 33.363281 24.839844 33.335938 24.820312 33.320312 C 24.804688 33.304688 24.78125 33.308594 24.761719 33.324219 Z M 24.761719 33.324219 "/><g clip-rule="nonzero" clip-path="url(#d483cd0f50)"><path style=" stroke:none;fill-rule:nonzero;fill:#31d1e6;fill-opacity:1;" d="M 39.871094 34.65625 C 39.578125 33.195312 38.671875 31.933594 37.382812 31.195312 C 36.734375 30.828125 36.050781 30.546875 35.339844 30.355469 C 34.730469 30.886719 33.941406 31.207031 33.070312 31.207031 C 32.199219 31.207031 31.410156 30.886719 30.804688 30.355469 C 30.28125 30.492188 29.773438 30.683594 29.289062 30.921875 C 30.53125 31.789062 31.398438 33.109375 31.699219 34.609375 L 32.496094 38.613281 C 31.785156 38.882812 31.070312 39.121094 30.34375 39.320312 C 33.773438 39.777344 37.289062 39.386719 40.5625 38.125 Z M 39.871094 34.65625 "/></g><g clip-rule="nonzero" clip-path="url(#219f18b31f)"><path style=" stroke:none;fill-rule:nonzero;fill:#31d1e6;fill-opacity:1;" d="M 15.207031 38.613281 L 16.007812 34.613281 C 16.308594 33.117188 17.179688 31.796875 18.417969 30.925781 C 17.925781 30.691406 17.421875 30.5 16.902344 30.363281 C 16.289062 30.886719 15.5 31.207031 14.632812 31.207031 C 13.761719 31.207031 12.972656 30.886719 12.367188 30.355469 C 11.65625 30.546875 10.972656 30.828125 10.328125 31.195312 C 9.035156 31.933594 8.125 33.195312 7.835938 34.65625 L 7.140625 38.125 C 9.917969 39.1875 12.863281 39.644531 15.785156 39.484375 C 16.3125 39.453125 16.851562 39.402344 17.375 39.332031 C 16.648438 39.125 15.921875 38.890625 15.207031 38.613281 Z M 15.207031 38.613281 "/></g><g clip-rule="nonzero" clip-path="url(#2fe6725a13)"><path style=" stroke:none;fill-rule:nonzero;fill:#31d1e6;fill-opacity:1;" d="M 30.652344 34.65625 C 30.355469 33.195312 29.453125 31.933594 28.160156 31.195312 C 27.515625 30.828125 26.832031 30.546875 26.121094 30.355469 C 25.511719 30.886719 24.722656 31.207031 23.851562 31.207031 C 22.980469 31.207031 22.191406 30.886719 21.585938 30.355469 C 20.878906 30.546875 20.191406 30.828125 19.546875 31.195312 C 18.257812 31.933594 17.34375 33.195312 17.058594 34.65625 L 16.359375 38.125 C 21.183594 39.980469 26.519531 39.980469 31.34375 38.125 Z M 30.652344 34.65625 "/></g><path style=" stroke:none;fill-rule:nonzero;fill:#31d1e6;fill-opacity:1;" d="M 27.308594 26.597656 C 27.308594 27.058594 27.222656 27.5 27.046875 27.921875 C 26.871094 28.34375 26.621094 28.71875 26.296875 29.042969 C 25.972656 29.367188 25.597656 29.617188 25.175781 29.792969 C 24.75 29.96875 24.308594 30.054688 23.851562 30.054688 C 23.394531 30.054688 22.953125 29.96875 22.527344 29.792969 C 22.105469 29.617188 21.730469 29.367188 21.40625 29.042969 C 21.082031 28.71875 20.832031 28.34375 20.65625 27.921875 C 20.480469 27.5 20.394531 27.058594 20.394531 26.597656 C 20.394531 26.140625 20.480469 25.699219 20.65625 25.277344 C 20.832031 24.851562 21.082031 24.476562 21.40625 24.152344 C 21.730469 23.828125 22.105469 23.578125 22.527344 23.40625 C 22.953125 23.230469 23.394531 23.140625 23.851562 23.140625 C 24.308594 23.140625 24.75 23.230469 25.175781 23.40625 C 25.597656 23.578125 25.972656 23.828125 26.296875 24.152344 C 26.621094 24.476562 26.871094 24.851562 27.046875 25.277344 C 27.222656 25.699219 27.308594 26.140625 27.308594 26.597656 Z M 27.308594 26.597656 "/><path style=" stroke:none;fill-rule:nonzero;fill:#31d1e6;fill-opacity:1;" d="M 18.089844 26.597656 C 18.089844 27.058594 18 27.5 17.824219 27.921875 C 17.648438 28.34375 17.398438 28.71875 17.074219 29.042969 C 16.75 29.367188 16.378906 29.617188 15.953125 29.792969 C 15.53125 29.96875 15.089844 30.054688 14.632812 30.054688 C 14.171875 30.054688 13.730469 29.96875 13.308594 29.792969 C 12.882812 29.617188 12.511719 29.367188 12.1875 29.042969 C 11.863281 28.71875 11.613281 28.34375 11.4375 27.921875 C 11.261719 27.5 11.175781 27.058594 11.175781 26.597656 C 11.175781 26.140625 11.261719 25.699219 11.4375 25.277344 C 11.613281 24.851562 11.863281 24.476562 12.1875 24.152344 C 12.511719 23.828125 12.882812 23.578125 13.308594 23.40625 C 13.730469 23.230469 14.171875 23.140625 14.632812 23.140625 C 15.089844 23.140625 15.53125 23.230469 15.953125 23.40625 C 16.378906 23.578125 16.75 23.828125 17.074219 24.152344 C 17.398438 24.476562 17.648438 24.851562 17.824219 25.277344 C 18 25.699219 18.089844 26.140625 18.089844 26.597656 Z M 18.089844 26.597656 "/><path style=" stroke:none;fill-rule:nonzero;fill:#31d1e6;fill-opacity:1;" d="M 36.527344 26.597656 C 36.527344 27.058594 36.441406 27.5 36.265625 27.921875 C 36.089844 28.34375 35.839844 28.71875 35.515625 29.042969 C 35.191406 29.367188 34.816406 29.617188 34.394531 29.792969 C 33.96875 29.96875 33.527344 30.054688 33.070312 30.054688 C 32.613281 30.054688 32.171875 29.96875 31.746094 29.792969 C 31.324219 29.617188 30.949219 29.367188 30.625 29.042969 C 30.300781 28.71875 30.050781 28.34375 29.875 27.921875 C 29.699219 27.5 29.613281 27.058594 29.613281 26.597656 C 29.613281 26.140625 29.699219 25.699219 29.875 25.277344 C 30.050781 24.851562 30.300781 24.476562 30.625 24.152344 C 30.949219 23.828125 31.324219 23.578125 31.746094 23.40625 C 32.171875 23.230469 32.613281 23.140625 33.070312 23.140625 C 33.527344 23.140625 33.96875 23.230469 34.394531 23.40625 C 34.816406 23.578125 35.191406 23.828125 35.515625 24.152344 C 35.839844 24.476562 36.089844 24.851562 36.265625 25.277344 C 36.441406 25.699219 36.527344 26.140625 36.527344 26.597656 Z M 36.527344 26.597656 "/><path style=" stroke:none;fill-rule:nonzero;fill:#31d1e6;fill-opacity:1;" d="M 37.679688 12.769531 C 37.679688 9.625 34.488281 6.925781 30.246094 6.492188 C 30.230469 6.492188 30.210938 6.492188 30.195312 6.492188 C 30.679688 6.910156 31.089844 7.371094 31.410156 7.859375 C 34.402344 8.5625 36.527344 10.527344 36.527344 12.769531 C 36.527344 14.949219 34.523438 16.90625 31.542969 17.648438 C 31.265625 17.71875 31.082031 17.976562 31.105469 18.261719 L 31.238281 19.707031 L 28.65625 18.023438 C 28.570312 17.972656 28.476562 17.9375 28.378906 17.933594 C 27.746094 17.890625 27.128906 17.792969 26.542969 17.648438 C 25.960938 17.886719 25.335938 18.078125 24.679688 18.21875 C 24.714844 18.242188 24.746094 18.273438 24.785156 18.289062 C 25.828125 18.722656 26.960938 18.980469 28.15625 19.074219 L 31.601562 21.320312 C 31.699219 21.382812 31.808594 21.414062 31.917969 21.414062 C 32.023438 21.414062 32.125 21.382812 32.21875 21.332031 C 32.40625 21.21875 32.511719 21.007812 32.496094 20.785156 L 32.296875 18.636719 C 35.535156 17.671875 37.679688 15.363281 37.679688 12.769531 Z M 37.679688 12.769531 "/><g clip-rule="nonzero" clip-path="url(#b97f89c77b)"><path style=" stroke:none;fill-rule:nonzero;fill:#31d1e6;fill-opacity:1;" d="M 31.082031 11.039062 C 31.082031 7.535156 26.957031 4.703125 21.863281 4.703125 C 16.769531 4.703125 12.644531 7.535156 12.644531 11.039062 C 12.644531 14.035156 15.675781 16.542969 19.75 17.207031 L 18.980469 20.261719 L 22.617188 17.351562 C 27.355469 17.089844 31.082031 14.367188 31.082031 11.039062 Z M 31.082031 11.039062 "/></g></g></svg>