<svg xmlns="http://www.w3.org/2000/svg" xmlns:xlink="http://www.w3.org/1999/xlink" width="64" zoomAndPan="magnify" viewBox="0 0 48 48" height="64" preserveAspectRatio="xMidYMid meet" version="1.2"><defs><clipPath id="4fed8e126e"><path d="M 23.414062 24.578125 L 24.882812 24.578125 L 24.882812 26 L 23.414062 26 Z M 23.414062 24.578125 "/></clipPath><clipPath id="8e46423f92"><path d="M 23.414062 25 L 24.882812 25 L 24.882812 26 L 23.414062 26 Z M 23.414062 25 "/></clipPath><clipPath id="6c19dc80d3"><path d="M 10.148438 16 L 19 16 L 19 31 L 10.148438 31 Z M 10.148438 16 "/></clipPath><clipPath id="de4af67fc0"><path d="M 19 13.8125 L 28 13.8125 L 28 32.917969 L 19 32.917969 Z M 19 13.8125 "/></clipPath></defs><g id="6daa283021"><g clip-rule="nonzero" clip-path="url(#4fed8e126e)"><path style=" stroke:none;fill-rule:nonzero;fill:#31d1e6;fill-opacity:1;" d="M 23.703125 24.578125 C 23.683594 24.578125 23.664062 24.597656 23.664062 24.617188 L 23.664062 24.660156 L 23.578125 24.660156 C 23.488281 24.660156 23.414062 24.734375 23.414062 24.828125 L 23.414062 25.582031 C 23.414062 25.671875 23.488281 25.75 23.578125 25.75 L 24.414062 25.75 C 24.507812 25.75 24.582031 25.671875 24.582031 25.582031 L 24.582031 24.828125 C 24.582031 24.734375 24.507812 24.660156 24.414062 24.660156 L 24.332031 24.660156 L 24.332031 24.617188 C 24.332031 24.597656 24.3125 24.578125 24.289062 24.578125 C 24.265625 24.578125 24.25 24.597656 24.25 24.617188 L 24.25 24.660156 L 24.039062 24.660156 L 24.039062 24.617188 C 24.039062 24.597656 24.019531 24.578125 23.996094 24.578125 C 23.976562 24.578125 23.957031 24.597656 23.957031 24.617188 L 23.957031 24.660156 L 23.746094 24.660156 L 23.746094 24.617188 C 23.746094 24.597656 23.726562 24.578125 23.703125 24.578125 Z M 23.578125 24.746094 L 23.664062 24.746094 L 23.664062 24.785156 C 23.664062 24.808594 23.683594 24.828125 23.703125 24.828125 C 23.726562 24.828125 23.746094 24.808594 23.746094 24.785156 L 23.746094 24.746094 L 23.957031 24.746094 L 23.957031 24.785156 C 23.957031 24.808594 23.976562 24.828125 23.996094 24.828125 C 24.019531 24.828125 24.039062 24.808594 24.039062 24.785156 L 24.039062 24.746094 L 24.25 24.746094 L 24.25 24.785156 C 24.25 24.808594 24.265625 24.828125 24.289062 24.828125 C 24.3125 24.828125 24.332031 24.808594 24.332031 24.785156 L 24.332031 24.746094 L 24.414062 24.746094 C 24.464844 24.746094 24.5 24.78125 24.5 24.828125 L 24.5 24.910156 L 23.496094 24.910156 L 23.496094 24.828125 C 23.496094 24.78125 23.53125 24.746094 23.578125 24.746094 Z M 23.496094 24.996094 L 24.5 24.996094 L 24.5 25.582031 C 24.5 25.628906 24.464844 25.664062 24.414062 25.664062 L 23.578125 25.664062 C 23.53125 25.664062 23.496094 25.628906 23.496094 25.582031 Z M 23.496094 24.996094 "/></g><g clip-rule="nonzero" clip-path="url(#8e46423f92)"><path style=" stroke:none;fill-rule:nonzero;fill:#31d1e6;fill-opacity:1;" d="M 24.175781 25.136719 L 23.953125 25.394531 L 23.816406 25.257812 C 23.800781 25.242188 23.773438 25.242188 23.757812 25.257812 C 23.742188 25.273438 23.742188 25.300781 23.757812 25.316406 L 23.925781 25.484375 C 23.945312 25.503906 23.972656 25.5 23.988281 25.484375 L 24.238281 25.191406 C 24.253906 25.171875 24.25 25.144531 24.234375 25.132812 C 24.214844 25.117188 24.191406 25.117188 24.175781 25.136719 Z M 24.175781 25.136719 "/></g><g clip-rule="nonzero" clip-path="url(#6c19dc80d3)"><path style=" stroke:none;fill-rule:nonzero;fill:#31d1e6;fill-opacity:1;" d="M 17.066406 30.226562 C 16.664062 30.226562 16.394531 30.089844 16.125 29.820312 L 10.746094 24.441406 C 10.207031 23.902344 10.207031 23.097656 10.746094 22.558594 L 16.125 17.175781 C 16.664062 16.640625 17.472656 16.640625 18.007812 17.175781 C 18.546875 17.714844 18.546875 18.523438 18.007812 19.058594 L 13.570312 23.5 L 18.007812 27.9375 C 18.546875 28.476562 18.546875 29.285156 18.007812 29.820312 C 17.738281 30.089844 17.472656 30.226562 17.066406 30.226562 Z M 17.066406 30.226562 "/></g><path style=" stroke:none;fill-rule:nonzero;fill:#31d1e6;fill-opacity:1;" d="M 30.519531 30.226562 C 30.117188 30.226562 29.847656 30.089844 29.578125 29.820312 C 29.039062 29.285156 29.039062 28.476562 29.578125 27.9375 L 34.015625 23.5 L 29.578125 19.058594 C 29.039062 18.523438 29.039062 17.714844 29.578125 17.175781 C 30.117188 16.640625 30.921875 16.640625 31.460938 17.175781 L 36.84375 22.558594 C 37.378906 23.097656 37.378906 23.902344 36.84375 24.441406 L 31.460938 29.820312 C 31.191406 30.089844 30.921875 30.226562 30.519531 30.226562 Z M 30.519531 30.226562 "/><g clip-rule="nonzero" clip-path="url(#de4af67fc0)"><path style=" stroke:none;fill-rule:nonzero;fill:#31d1e6;fill-opacity:1;" d="M 21.101562 32.917969 C 20.96875 32.917969 20.832031 32.917969 20.699219 32.78125 C 20.027344 32.511719 19.625 31.839844 19.890625 31.03125 L 25.273438 14.890625 C 25.542969 14.21875 26.214844 13.8125 27.023438 14.082031 C 27.695312 14.351562 28.097656 15.023438 27.828125 15.832031 L 22.449219 31.972656 C 22.179688 32.511719 21.640625 32.917969 21.101562 32.917969 Z M 21.101562 32.917969 "/></g></g></svg>