<svg xmlns="http://www.w3.org/2000/svg" xmlns:xlink="http://www.w3.org/1999/xlink" width="64" zoomAndPan="magnify" viewBox="0 0 48 48" height="64" preserveAspectRatio="xMidYMid meet" version="1.2"><defs><clipPath id="991682df5f"><path d="M 33.167969 13.128906 L 34.636719 13.128906 L 34.636719 14.597656 L 33.167969 14.597656 Z M 33.167969 13.128906 "/></clipPath><clipPath id="bc45deeb62"><path d="M 23 9.125 L 38.265625 9.125 L 38.265625 24 L 23 24 Z M 23 9.125 "/></clipPath><clipPath id="8b76162562"><path d="M 9.613281 9.125 L 38.265625 9.125 L 38.265625 37.777344 L 9.613281 37.777344 Z M 9.613281 9.125 "/></clipPath></defs><g id="1f5b7395fc"><g clip-rule="nonzero" clip-path="url(#991682df5f)"><path style=" stroke:none;fill-rule:nonzero;fill:#31d1e6;fill-opacity:1;" d="M 33.503906 13.128906 C 33.476562 13.128906 33.457031 13.148438 33.457031 13.175781 L 33.457031 13.222656 L 33.359375 13.222656 C 33.253906 13.222656 33.167969 13.3125 33.167969 13.417969 L 33.167969 14.28125 C 33.167969 14.386719 33.253906 14.472656 33.359375 14.472656 L 34.320312 14.472656 C 34.425781 14.472656 34.511719 14.386719 34.511719 14.28125 L 34.511719 13.417969 C 34.511719 13.3125 34.425781 13.222656 34.320312 13.222656 L 34.222656 13.222656 L 34.222656 13.175781 C 34.222656 13.148438 34.203125 13.128906 34.175781 13.128906 C 34.148438 13.128906 34.128906 13.148438 34.128906 13.175781 L 34.128906 13.222656 L 33.886719 13.222656 L 33.886719 13.175781 C 33.886719 13.148438 33.867188 13.128906 33.839844 13.128906 C 33.8125 13.128906 33.792969 13.148438 33.792969 13.175781 L 33.792969 13.222656 L 33.550781 13.222656 L 33.550781 13.175781 C 33.550781 13.148438 33.53125 13.128906 33.503906 13.128906 Z M 33.359375 13.320312 L 33.457031 13.320312 L 33.457031 13.367188 C 33.457031 13.394531 33.476562 13.417969 33.503906 13.417969 C 33.53125 13.417969 33.550781 13.394531 33.550781 13.367188 L 33.550781 13.320312 L 33.792969 13.320312 L 33.792969 13.367188 C 33.792969 13.394531 33.8125 13.417969 33.839844 13.417969 C 33.867188 13.417969 33.886719 13.394531 33.886719 13.367188 L 33.886719 13.320312 L 34.128906 13.320312 L 34.128906 13.367188 C 34.128906 13.394531 34.148438 13.417969 34.175781 13.417969 C 34.203125 13.417969 34.222656 13.394531 34.222656 13.367188 L 34.222656 13.320312 L 34.320312 13.320312 C 34.375 13.320312 34.414062 13.363281 34.414062 13.417969 L 34.414062 13.511719 L 33.265625 13.511719 L 33.265625 13.417969 C 33.265625 13.363281 33.304688 13.320312 33.359375 13.320312 Z M 33.265625 13.609375 L 34.414062 13.609375 L 34.414062 14.28125 C 34.414062 14.332031 34.375 14.375 34.320312 14.375 L 33.359375 14.375 C 33.304688 14.375 33.265625 14.332031 33.265625 14.28125 Z M 33.265625 13.609375 "/><path style=" stroke:none;fill-rule:nonzero;fill:#31d1e6;fill-opacity:1;" d="M 34.042969 13.769531 L 33.789062 14.066406 L 33.632812 13.910156 C 33.613281 13.890625 33.585938 13.890625 33.566406 13.910156 C 33.546875 13.929688 33.546875 13.960938 33.566406 13.976562 L 33.757812 14.171875 C 33.777344 14.191406 33.808594 14.1875 33.828125 14.167969 L 34.117188 13.832031 C 34.132812 13.8125 34.128906 13.78125 34.109375 13.765625 C 34.089844 13.746094 34.0625 13.746094 34.042969 13.769531 Z M 34.042969 13.769531 "/></g><g clip-rule="nonzero" clip-path="url(#bc45deeb62)"><path style=" stroke:none;fill-rule:nonzero;fill:#31d1e6;fill-opacity:1;" d="M 31.101562 15.390625 L 23.761719 22.734375 C 23.523438 22.972656 23.523438 23.390625 23.761719 23.628906 C 24 23.867188 24.417969 23.867188 24.65625 23.628906 L 32 16.285156 L 34.207031 16.585938 L 38.265625 12.527344 L 35.28125 12.109375 L 34.863281 9.125 L 30.746094 13.242188 Z M 31.101562 15.390625 "/></g><g clip-rule="nonzero" clip-path="url(#8b76162562)"><path style=" stroke:none;fill-rule:nonzero;fill:#31d1e6;fill-opacity:1;" d="M 34.683594 17.78125 C 35.582031 19.449219 36.117188 21.359375 36.117188 23.449219 C 36.117188 30.136719 30.683594 35.566406 24 35.566406 C 17.253906 35.566406 11.820312 30.136719 11.820312 23.449219 C 11.820312 16.765625 17.253906 11.332031 23.941406 11.332031 C 25.96875 11.332031 27.878906 11.808594 29.609375 12.707031 L 31.222656 11.09375 C 29.074219 9.839844 26.566406 9.125 23.941406 9.125 C 16.058594 9.125 9.613281 15.570312 9.613281 23.449219 C 9.613281 31.328125 16.058594 37.777344 23.941406 37.777344 C 31.820312 37.777344 38.265625 31.328125 38.265625 23.449219 C 38.265625 20.824219 37.550781 18.316406 36.296875 16.167969 Z M 34.683594 17.78125 "/></g><path style=" stroke:none;fill-rule:nonzero;fill:#31d1e6;fill-opacity:1;" d="M 29.550781 15.273438 C 27.941406 14.136719 26.03125 13.542969 23.941406 13.542969 C 18.449219 13.542969 14.03125 17.957031 14.03125 23.449219 C 14.03125 28.941406 18.449219 33.359375 23.941406 33.359375 C 29.433594 33.359375 33.847656 28.941406 33.847656 23.449219 C 33.847656 21.359375 33.191406 19.449219 32.117188 17.839844 L 30.507812 19.449219 C 31.222656 20.644531 31.640625 22.015625 31.640625 23.449219 C 31.640625 27.6875 28.179688 31.152344 23.941406 31.152344 C 19.703125 31.152344 16.238281 27.6875 16.238281 23.449219 C 16.238281 19.210938 19.703125 15.75 23.941406 15.75 C 25.433594 15.75 26.804688 16.167969 27.941406 16.882812 Z M 29.550781 15.273438 "/><path style=" stroke:none;fill-rule:nonzero;fill:#31d1e6;fill-opacity:1;" d="M 23.941406 20.167969 C 24.179688 20.167969 24.417969 20.167969 24.597656 20.226562 L 26.328125 18.496094 C 25.613281 18.136719 24.777344 17.957031 23.941406 17.957031 C 20.894531 17.957031 18.449219 20.40625 18.449219 23.449219 C 18.449219 26.496094 20.894531 28.941406 23.941406 28.941406 C 26.984375 28.941406 29.433594 26.496094 29.433594 23.449219 C 29.433594 22.613281 29.253906 21.777344 28.894531 21.0625 L 27.164062 22.792969 C 27.222656 23.03125 27.222656 23.210938 27.222656 23.449219 C 27.222656 25.300781 25.730469 26.734375 23.941406 26.734375 C 22.089844 26.734375 20.65625 25.242188 20.65625 23.449219 C 20.65625 21.601562 22.089844 20.167969 23.941406 20.167969 Z M 23.941406 20.167969 "/></g></svg>