<svg xmlns="http://www.w3.org/2000/svg" xmlns:xlink="http://www.w3.org/1999/xlink" width="80" zoomAndPan="magnify" viewBox="0 0 60 60" height="80" preserveAspectRatio="xMidYMid meet" version="1.2"><defs/><g id="cfcfa74d93"><g style="fill:#31d1e6;fill-opacity:1;"><g transform="translate(1.119141, 36.218757)"><path style="stroke:none" d="M 1.3125 -11.0625 L 6.34375 -11.0625 C 7.539062 -11.0625 8.597656 -10.832031 9.515625 -10.375 C 10.441406 -9.914062 11.160156 -9.269531 11.671875 -8.4375 C 12.179688 -7.601562 12.4375 -6.632812 12.4375 -5.53125 C 12.4375 -4.425781 12.179688 -3.457031 11.671875 -2.625 C 11.160156 -1.789062 10.441406 -1.144531 9.515625 -0.6875 C 8.597656 -0.226562 7.539062 0 6.34375 0 L 1.3125 0 Z M 6.21875 -2.109375 C 7.320312 -2.109375 8.203125 -2.414062 8.859375 -3.03125 C 9.515625 -3.644531 9.84375 -4.476562 9.84375 -5.53125 C 9.84375 -6.582031 9.515625 -7.414062 8.859375 -8.03125 C 8.203125 -8.65625 7.320312 -8.96875 6.21875 -8.96875 L 3.875 -8.96875 L 3.875 -2.109375 Z M 6.21875 -2.109375 "/></g></g><g style="fill:#31d1e6;fill-opacity:1;"><g transform="translate(14.17456, 36.218757)"><path style="stroke:none" d="M 8.359375 0 L 6.234375 -3.078125 L 3.875 -3.078125 L 3.875 0 L 1.3125 0 L 1.3125 -11.0625 L 6.109375 -11.0625 C 7.085938 -11.0625 7.9375 -10.898438 8.65625 -10.578125 C 9.375 -10.253906 9.925781 -9.789062 10.3125 -9.1875 C 10.707031 -8.582031 10.90625 -7.867188 10.90625 -7.046875 C 10.90625 -6.222656 10.707031 -5.515625 10.3125 -4.921875 C 9.914062 -4.328125 9.359375 -3.875 8.640625 -3.5625 L 11.109375 0 Z M 8.3125 -7.046875 C 8.3125 -7.671875 8.109375 -8.148438 7.703125 -8.484375 C 7.304688 -8.816406 6.726562 -8.984375 5.96875 -8.984375 L 3.875 -8.984375 L 3.875 -5.125 L 5.96875 -5.125 C 6.726562 -5.125 7.304688 -5.289062 7.703125 -5.625 C 8.109375 -5.96875 8.3125 -6.441406 8.3125 -7.046875 Z M 8.3125 -7.046875 "/></g></g><g style="fill:#31d1e6;fill-opacity:1;"><g transform="translate(25.791672, 36.218757)"><path style="stroke:none" d="M 6.109375 -11.0625 C 7.085938 -11.0625 7.9375 -10.898438 8.65625 -10.578125 C 9.375 -10.253906 9.925781 -9.789062 10.3125 -9.1875 C 10.707031 -8.582031 10.90625 -7.867188 10.90625 -7.046875 C 10.90625 -6.234375 10.707031 -5.523438 10.3125 -4.921875 C 9.925781 -4.316406 9.375 -3.851562 8.65625 -3.53125 C 7.9375 -3.207031 7.085938 -3.046875 6.109375 -3.046875 L 3.875 -3.046875 L 3.875 0 L 1.3125 0 L 1.3125 -11.0625 Z M 5.96875 -5.140625 C 6.726562 -5.140625 7.304688 -5.304688 7.703125 -5.640625 C 8.109375 -5.972656 8.3125 -6.441406 8.3125 -7.046875 C 8.3125 -7.671875 8.109375 -8.148438 7.703125 -8.484375 C 7.304688 -8.816406 6.726562 -8.984375 5.96875 -8.984375 L 3.875 -8.984375 L 3.875 -5.140625 Z M 5.96875 -5.140625 "/></g></g><g style="fill:#31d1e6;fill-opacity:1;"><g transform="translate(37.203205, 36.218757)"><path style="stroke:none" d="M 6.109375 -11.0625 C 7.085938 -11.0625 7.9375 -10.898438 8.65625 -10.578125 C 9.375 -10.253906 9.925781 -9.789062 10.3125 -9.1875 C 10.707031 -8.582031 10.90625 -7.867188 10.90625 -7.046875 C 10.90625 -6.234375 10.707031 -5.523438 10.3125 -4.921875 C 9.925781 -4.316406 9.375 -3.851562 8.65625 -3.53125 C 7.9375 -3.207031 7.085938 -3.046875 6.109375 -3.046875 L 3.875 -3.046875 L 3.875 0 L 1.3125 0 L 1.3125 -11.0625 Z M 5.96875 -5.140625 C 6.726562 -5.140625 7.304688 -5.304688 7.703125 -5.640625 C 8.109375 -5.972656 8.3125 -6.441406 8.3125 -7.046875 C 8.3125 -7.671875 8.109375 -8.148438 7.703125 -8.484375 C 7.304688 -8.816406 6.726562 -8.984375 5.96875 -8.984375 L 3.875 -8.984375 L 3.875 -5.140625 Z M 5.96875 -5.140625 "/></g></g><g style="fill:#31d1e6;fill-opacity:1;"><g transform="translate(48.772895, 36.218757)"><path style="stroke:none" d="M 4.953125 0.1875 C 4.078125 0.1875 3.226562 0.0703125 2.40625 -0.15625 C 1.59375 -0.394531 0.9375 -0.707031 0.4375 -1.09375 L 1.3125 -3.015625 C 1.789062 -2.671875 2.351562 -2.390625 3 -2.171875 C 3.65625 -1.960938 4.3125 -1.859375 4.96875 -1.859375 C 5.695312 -1.859375 6.234375 -1.96875 6.578125 -2.1875 C 6.921875 -2.40625 7.09375 -2.691406 7.09375 -3.046875 C 7.09375 -3.316406 6.988281 -3.535156 6.78125 -3.703125 C 6.582031 -3.878906 6.320312 -4.019531 6 -4.125 C 5.675781 -4.226562 5.242188 -4.34375 4.703125 -4.46875 C 3.859375 -4.675781 3.164062 -4.878906 2.625 -5.078125 C 2.082031 -5.273438 1.617188 -5.59375 1.234375 -6.03125 C 0.859375 -6.476562 0.671875 -7.070312 0.671875 -7.8125 C 0.671875 -8.457031 0.84375 -9.039062 1.1875 -9.5625 C 1.53125 -10.082031 2.050781 -10.492188 2.75 -10.796875 C 3.457031 -11.109375 4.316406 -11.265625 5.328125 -11.265625 C 6.035156 -11.265625 6.722656 -11.175781 7.390625 -11 C 8.066406 -10.832031 8.660156 -10.59375 9.171875 -10.28125 L 8.375 -8.328125 C 7.351562 -8.910156 6.332031 -9.203125 5.3125 -9.203125 C 4.59375 -9.203125 4.0625 -9.082031 3.71875 -8.84375 C 3.375 -8.613281 3.203125 -8.3125 3.203125 -7.9375 C 3.203125 -7.5625 3.398438 -7.28125 3.796875 -7.09375 C 4.191406 -6.90625 4.796875 -6.722656 5.609375 -6.546875 C 6.453125 -6.347656 7.140625 -6.144531 7.671875 -5.9375 C 8.210938 -5.738281 8.675781 -5.421875 9.0625 -4.984375 C 9.445312 -4.554688 9.640625 -3.972656 9.640625 -3.234375 C 9.640625 -2.609375 9.460938 -2.035156 9.109375 -1.515625 C 8.765625 -0.992188 8.238281 -0.578125 7.53125 -0.265625 C 6.820312 0.0351562 5.960938 0.1875 4.953125 0.1875 Z M 4.953125 0.1875 "/></g></g><g style="fill:#31d1e6;fill-opacity:1;"><g transform="translate(16.759219, 21.318258)"><path style="stroke:none" d="M 6.03125 -5.8125 L 6.03125 0 L 4.921875 0 L 2.015625 -3.53125 L 2.015625 0 L 0.6875 0 L 0.6875 -5.8125 L 1.796875 -5.8125 L 4.703125 -2.28125 L 4.703125 -5.8125 Z M 6.03125 -5.8125 "/></g></g><g style="fill:#31d1e6;fill-opacity:1;"><g transform="translate(23.481853, 21.318258)"><path style="stroke:none" d="M 2.71875 0.0625 C 2.25 0.0625 1.828125 -0.0351562 1.453125 -0.234375 C 1.078125 -0.429688 0.785156 -0.703125 0.578125 -1.046875 C 0.367188 -1.398438 0.265625 -1.796875 0.265625 -2.234375 C 0.265625 -2.679688 0.367188 -3.078125 0.578125 -3.421875 C 0.785156 -3.773438 1.078125 -4.046875 1.453125 -4.234375 C 1.828125 -4.429688 2.25 -4.53125 2.71875 -4.53125 C 3.195312 -4.53125 3.617188 -4.429688 3.984375 -4.234375 C 4.359375 -4.046875 4.648438 -3.773438 4.859375 -3.421875 C 5.066406 -3.078125 5.171875 -2.679688 5.171875 -2.234375 C 5.171875 -1.796875 5.066406 -1.398438 4.859375 -1.046875 C 4.648438 -0.703125 4.359375 -0.429688 3.984375 -0.234375 C 3.617188 -0.0351562 3.195312 0.0625 2.71875 0.0625 Z M 2.71875 -1 C 3.050781 -1 3.320312 -1.109375 3.53125 -1.328125 C 3.75 -1.554688 3.859375 -1.859375 3.859375 -2.234375 C 3.859375 -2.609375 3.75 -2.90625 3.53125 -3.125 C 3.320312 -3.351562 3.050781 -3.46875 2.71875 -3.46875 C 2.394531 -3.46875 2.125 -3.351562 1.90625 -3.125 C 1.6875 -2.90625 1.578125 -2.609375 1.578125 -2.234375 C 1.578125 -1.859375 1.6875 -1.554688 1.90625 -1.328125 C 2.125 -1.109375 2.394531 -1 2.71875 -1 Z M 2.71875 -1 "/></g></g><g style="fill:#31d1e6;fill-opacity:1;"><g transform="translate(28.931513, 21.318258)"><path style="stroke:none" d="M 2.109375 0.0625 C 1.734375 0.0625 1.367188 0.0195312 1.015625 -0.0625 C 0.660156 -0.15625 0.378906 -0.273438 0.171875 -0.421875 L 0.59375 -1.34375 C 0.789062 -1.21875 1.03125 -1.113281 1.3125 -1.03125 C 1.601562 -0.957031 1.882812 -0.921875 2.15625 -0.921875 C 2.695312 -0.921875 2.96875 -1.054688 2.96875 -1.328125 C 2.96875 -1.453125 2.894531 -1.539062 2.75 -1.59375 C 2.601562 -1.644531 2.375 -1.691406 2.0625 -1.734375 C 1.695312 -1.796875 1.394531 -1.859375 1.15625 -1.921875 C 0.914062 -1.992188 0.707031 -2.117188 0.53125 -2.296875 C 0.363281 -2.484375 0.28125 -2.75 0.28125 -3.09375 C 0.28125 -3.375 0.359375 -3.625 0.515625 -3.84375 C 0.679688 -4.0625 0.921875 -4.226562 1.234375 -4.34375 C 1.546875 -4.46875 1.914062 -4.53125 2.34375 -4.53125 C 2.65625 -4.53125 2.96875 -4.492188 3.28125 -4.421875 C 3.59375 -4.359375 3.851562 -4.265625 4.0625 -4.140625 L 3.625 -3.21875 C 3.238281 -3.445312 2.8125 -3.5625 2.34375 -3.5625 C 2.0625 -3.5625 1.851562 -3.519531 1.71875 -3.4375 C 1.582031 -3.363281 1.515625 -3.265625 1.515625 -3.140625 C 1.515625 -3.003906 1.585938 -2.90625 1.734375 -2.84375 C 1.890625 -2.789062 2.128906 -2.738281 2.453125 -2.6875 C 2.816406 -2.632812 3.113281 -2.570312 3.34375 -2.5 C 3.582031 -2.425781 3.785156 -2.296875 3.953125 -2.109375 C 4.128906 -1.929688 4.21875 -1.679688 4.21875 -1.359375 C 4.21875 -1.078125 4.132812 -0.828125 3.96875 -0.609375 C 3.800781 -0.398438 3.554688 -0.234375 3.234375 -0.109375 C 2.921875 0.00390625 2.546875 0.0625 2.109375 0.0625 Z M 2.109375 0.0625 "/></g></g><g style="fill:#31d1e6;fill-opacity:1;"><g transform="translate(33.349474, 21.318258)"><path style="stroke:none" d="M 2.109375 0.0625 C 1.734375 0.0625 1.367188 0.0195312 1.015625 -0.0625 C 0.660156 -0.15625 0.378906 -0.273438 0.171875 -0.421875 L 0.59375 -1.34375 C 0.789062 -1.21875 1.03125 -1.113281 1.3125 -1.03125 C 1.601562 -0.957031 1.882812 -0.921875 2.15625 -0.921875 C 2.695312 -0.921875 2.96875 -1.054688 2.96875 -1.328125 C 2.96875 -1.453125 2.894531 -1.539062 2.75 -1.59375 C 2.601562 -1.644531 2.375 -1.691406 2.0625 -1.734375 C 1.695312 -1.796875 1.394531 -1.859375 1.15625 -1.921875 C 0.914062 -1.992188 0.707031 -2.117188 0.53125 -2.296875 C 0.363281 -2.484375 0.28125 -2.75 0.28125 -3.09375 C 0.28125 -3.375 0.359375 -3.625 0.515625 -3.84375 C 0.679688 -4.0625 0.921875 -4.226562 1.234375 -4.34375 C 1.546875 -4.46875 1.914062 -4.53125 2.34375 -4.53125 C 2.65625 -4.53125 2.96875 -4.492188 3.28125 -4.421875 C 3.59375 -4.359375 3.851562 -4.265625 4.0625 -4.140625 L 3.625 -3.21875 C 3.238281 -3.445312 2.8125 -3.5625 2.34375 -3.5625 C 2.0625 -3.5625 1.851562 -3.519531 1.71875 -3.4375 C 1.582031 -3.363281 1.515625 -3.265625 1.515625 -3.140625 C 1.515625 -3.003906 1.585938 -2.90625 1.734375 -2.84375 C 1.890625 -2.789062 2.128906 -2.738281 2.453125 -2.6875 C 2.816406 -2.632812 3.113281 -2.570312 3.34375 -2.5 C 3.582031 -2.425781 3.785156 -2.296875 3.953125 -2.109375 C 4.128906 -1.929688 4.21875 -1.679688 4.21875 -1.359375 C 4.21875 -1.078125 4.132812 -0.828125 3.96875 -0.609375 C 3.800781 -0.398438 3.554688 -0.234375 3.234375 -0.109375 C 2.921875 0.00390625 2.546875 0.0625 2.109375 0.0625 Z M 2.109375 0.0625 "/></g></g><g style="fill:#31d1e6;fill-opacity:1;"><g transform="translate(37.767436, 21.318258)"><path style="stroke:none" d="M 2.71875 0.0625 C 2.25 0.0625 1.828125 -0.0351562 1.453125 -0.234375 C 1.078125 -0.429688 0.785156 -0.703125 0.578125 -1.046875 C 0.367188 -1.398438 0.265625 -1.796875 0.265625 -2.234375 C 0.265625 -2.679688 0.367188 -3.078125 0.578125 -3.421875 C 0.785156 -3.773438 1.078125 -4.046875 1.453125 -4.234375 C 1.828125 -4.429688 2.25 -4.53125 2.71875 -4.53125 C 3.195312 -4.53125 3.617188 -4.429688 3.984375 -4.234375 C 4.359375 -4.046875 4.648438 -3.773438 4.859375 -3.421875 C 5.066406 -3.078125 5.171875 -2.679688 5.171875 -2.234375 C 5.171875 -1.796875 5.066406 -1.398438 4.859375 -1.046875 C 4.648438 -0.703125 4.359375 -0.429688 3.984375 -0.234375 C 3.617188 -0.0351562 3.195312 0.0625 2.71875 0.0625 Z M 2.71875 -1 C 3.050781 -1 3.320312 -1.109375 3.53125 -1.328125 C 3.75 -1.554688 3.859375 -1.859375 3.859375 -2.234375 C 3.859375 -2.609375 3.75 -2.90625 3.53125 -3.125 C 3.320312 -3.351562 3.050781 -3.46875 2.71875 -3.46875 C 2.394531 -3.46875 2.125 -3.351562 1.90625 -3.125 C 1.6875 -2.90625 1.578125 -2.609375 1.578125 -2.234375 C 1.578125 -1.859375 1.6875 -1.554688 1.90625 -1.328125 C 2.125 -1.109375 2.394531 -1 2.71875 -1 Z M 2.71875 -1 "/></g></g></g></svg>