<svg xmlns="http://www.w3.org/2000/svg" xmlns:xlink="http://www.w3.org/1999/xlink" width="64" zoomAndPan="magnify" viewBox="0 0 48 48" height="64" preserveAspectRatio="xMidYMid meet" version="1.2"><defs><clipPath id="7a9b268fb8"><path d="M 17.09375 31.003906 L 18.5625 31.003906 L 18.5625 32.472656 L 17.09375 32.472656 Z M 17.09375 31.003906 "/></clipPath><clipPath id="6fe1f06af1"><path d="M 17.09375 31.003906 L 18 31.003906 L 18 32 L 17.09375 32 Z M 17.09375 31.003906 "/></clipPath><clipPath id="45505cf066"><path d="M 10.628906 34 L 27 34 L 27 36.585938 L 10.628906 36.585938 Z M 10.628906 34 "/></clipPath><clipPath id="c243ed6e62"><path d="M 22 10.140625 L 32 10.140625 L 32 20 L 22 20 Z M 22 10.140625 "/></clipPath></defs><g id="5c8818b43e"><g clip-rule="nonzero" clip-path="url(#7a9b268fb8)"><path style=" stroke:none;fill-rule:nonzero;fill:#31d1e6;fill-opacity:1;" d="M 17.386719 31.003906 C 17.363281 31.003906 17.34375 31.023438 17.34375 31.046875 L 17.34375 31.085938 L 17.261719 31.085938 C 17.167969 31.085938 17.09375 31.164062 17.09375 31.253906 L 17.09375 32.007812 C 17.09375 32.101562 17.167969 32.175781 17.261719 32.175781 L 18.097656 32.175781 C 18.1875 32.175781 18.265625 32.101562 18.265625 32.007812 L 18.265625 31.253906 C 18.265625 31.164062 18.1875 31.085938 18.097656 31.085938 L 18.015625 31.085938 L 18.015625 31.046875 C 18.015625 31.023438 17.996094 31.003906 17.972656 31.003906 C 17.949219 31.003906 17.929688 31.023438 17.929688 31.046875 L 17.929688 31.085938 L 17.722656 31.085938 L 17.722656 31.046875 C 17.722656 31.023438 17.703125 31.003906 17.679688 31.003906 C 17.65625 31.003906 17.636719 31.023438 17.636719 31.046875 L 17.636719 31.085938 L 17.429688 31.085938 L 17.429688 31.046875 C 17.429688 31.023438 17.410156 31.003906 17.386719 31.003906 Z M 17.261719 31.171875 L 17.34375 31.171875 L 17.34375 31.214844 C 17.34375 31.234375 17.363281 31.253906 17.386719 31.253906 C 17.410156 31.253906 17.429688 31.234375 17.429688 31.214844 L 17.429688 31.171875 L 17.636719 31.171875 L 17.636719 31.214844 C 17.636719 31.234375 17.65625 31.253906 17.679688 31.253906 C 17.703125 31.253906 17.722656 31.234375 17.722656 31.214844 L 17.722656 31.171875 L 17.929688 31.171875 L 17.929688 31.214844 C 17.929688 31.234375 17.949219 31.253906 17.972656 31.253906 C 17.996094 31.253906 18.015625 31.234375 18.015625 31.214844 L 18.015625 31.171875 L 18.097656 31.171875 C 18.144531 31.171875 18.179688 31.207031 18.179688 31.253906 L 18.179688 31.339844 L 17.175781 31.339844 L 17.175781 31.253906 C 17.175781 31.207031 17.214844 31.171875 17.261719 31.171875 Z M 17.175781 31.421875 L 18.179688 31.421875 L 18.179688 32.007812 C 18.179688 32.054688 18.144531 32.089844 18.097656 32.089844 L 17.261719 32.089844 C 17.214844 32.089844 17.175781 32.054688 17.175781 32.007812 Z M 17.175781 31.421875 "/></g><g clip-rule="nonzero" clip-path="url(#6fe1f06af1)"><path style=" stroke:none;fill-rule:nonzero;fill:#31d1e6;fill-opacity:1;" d="M 17.855469 31.5625 L 17.636719 31.820312 L 17.5 31.683594 C 17.484375 31.667969 17.457031 31.667969 17.441406 31.683594 C 17.425781 31.703125 17.425781 31.726562 17.441406 31.746094 L 17.609375 31.910156 C 17.625 31.929688 17.652344 31.929688 17.667969 31.910156 L 17.921875 31.617188 C 17.933594 31.597656 17.933594 31.574219 17.914062 31.558594 C 17.898438 31.542969 17.875 31.542969 17.855469 31.5625 Z M 17.855469 31.5625 "/></g><path style=" stroke:none;fill-rule:nonzero;fill:#31d1e6;fill-opacity:1;" d="M 26.636719 21.941406 L 24.863281 23.714844 L 33.660156 32.507812 C 33.832031 32.679688 34.027344 32.808594 34.253906 32.902344 C 34.476562 32.996094 34.707031 33.042969 34.949219 33.042969 C 35.191406 33.042969 35.421875 32.996094 35.648438 32.902344 C 35.871094 32.808594 36.066406 32.679688 36.238281 32.507812 L 36.34375 32.40625 C 36.511719 32.234375 36.644531 32.035156 36.738281 31.8125 C 36.828125 31.589844 36.875 31.355469 36.875 31.117188 C 36.875 30.875 36.828125 30.640625 36.738281 30.417969 C 36.644531 30.195312 36.511719 29.996094 36.34375 29.828125 L 27.550781 21.027344 Z M 26.636719 21.941406 "/><path style=" stroke:none;fill-rule:nonzero;fill:#31d1e6;fill-opacity:1;" d="M 23.222656 23.492188 L 23.292969 23.570312 L 24.917969 21.945312 L 24.054688 21.082031 L 19.796875 16.828125 L 18.175781 18.449219 L 18.253906 18.523438 Z M 23.222656 23.492188 "/><path style=" stroke:none;fill-rule:nonzero;fill:#31d1e6;fill-opacity:1;" d="M 25.78125 21.082031 L 27.402344 19.460938 L 27.324219 19.386719 L 22.355469 14.417969 L 22.285156 14.339844 L 20.660156 15.964844 L 24.917969 20.21875 Z M 25.78125 21.082031 "/><path style=" stroke:none;fill-rule:nonzero;fill:#31d1e6;fill-opacity:1;" d="M 19.675781 27.035156 C 19.847656 27.207031 20.042969 27.339844 20.265625 27.429688 C 20.492188 27.523438 20.722656 27.570312 20.964844 27.570312 C 21.207031 27.570312 21.4375 27.523438 21.664062 27.429688 C 21.886719 27.339844 22.082031 27.207031 22.253906 27.035156 L 22.355469 26.933594 C 22.703125 26.589844 22.878906 26.171875 22.890625 25.6875 C 22.902344 25.207031 22.75 24.785156 22.429688 24.425781 L 22.355469 24.347656 L 17.390625 19.378906 L 17.316406 19.3125 C 16.972656 19 16.566406 18.847656 16.101562 18.851562 L 16.058594 18.851562 C 15.582031 18.871094 15.179688 19.050781 14.84375 19.386719 L 14.738281 19.488281 C 14.566406 19.660156 14.4375 19.859375 14.34375 20.082031 C 14.25 20.304688 14.207031 20.539062 14.207031 20.777344 C 14.207031 21.019531 14.25 21.253906 14.34375 21.476562 C 14.4375 21.699219 14.566406 21.898438 14.738281 22.066406 Z M 19.675781 27.035156 "/><path style=" stroke:none;fill-rule:nonzero;fill:#31d1e6;fill-opacity:1;" d="M 22.179688 30.507812 L 14.882812 30.507812 C 14.535156 30.507812 14.195312 30.566406 13.863281 30.683594 C 13.535156 30.800781 13.234375 30.972656 12.960938 31.191406 C 12.691406 31.414062 12.464844 31.675781 12.28125 31.976562 C 12.101562 32.273438 11.976562 32.597656 11.90625 32.941406 L 25.160156 32.941406 C 25.089844 32.597656 24.964844 32.273438 24.785156 31.976562 C 24.601562 31.675781 24.375 31.414062 24.105469 31.191406 C 23.832031 30.972656 23.53125 30.800781 23.203125 30.683594 C 22.871094 30.566406 22.53125 30.507812 22.179688 30.507812 Z M 22.179688 30.507812 "/><g clip-rule="nonzero" clip-path="url(#45505cf066)"><path style=" stroke:none;fill-rule:nonzero;fill:#31d1e6;fill-opacity:1;" d="M 11.238281 36.585938 L 25.828125 36.585938 C 25.996094 36.585938 26.140625 36.527344 26.257812 36.410156 C 26.378906 36.289062 26.4375 36.148438 26.4375 35.980469 L 26.4375 34.15625 L 10.628906 34.15625 L 10.628906 35.980469 C 10.628906 36.148438 10.6875 36.289062 10.808594 36.410156 C 10.925781 36.527344 11.070312 36.585938 11.238281 36.585938 Z M 11.238281 36.585938 "/></g><g clip-rule="nonzero" clip-path="url(#c243ed6e62)"><path style=" stroke:none;fill-rule:nonzero;fill:#31d1e6;fill-opacity:1;" d="M 22.789062 12.875 C 22.828125 12.980469 22.875 13.082031 22.933594 13.179688 C 22.933594 13.226562 22.996094 13.269531 23.027344 13.320312 L 23.136719 13.453125 L 23.207031 13.53125 L 28.175781 18.5 L 28.253906 18.570312 L 28.390625 18.679688 C 28.433594 18.714844 28.480469 18.746094 28.527344 18.773438 C 28.574219 18.804688 28.621094 18.832031 28.675781 18.851562 C 28.738281 18.890625 28.800781 18.925781 28.871094 18.957031 L 28.984375 18.992188 L 29.144531 19.027344 C 29.25 19.046875 29.359375 19.058594 29.472656 19.058594 L 29.855469 19.058594 L 30.023438 18.957031 L 30.164062 18.90625 L 30.25 18.871094 C 30.324219 18.835938 30.394531 18.796875 30.460938 18.753906 C 30.574219 18.683594 30.675781 18.601562 30.765625 18.503906 L 30.871094 18.402344 C 31.039062 18.230469 31.171875 18.035156 31.265625 17.808594 C 31.355469 17.585938 31.402344 17.355469 31.402344 17.113281 C 31.402344 16.871094 31.355469 16.636719 31.265625 16.414062 C 31.171875 16.191406 31.039062 15.996094 30.871094 15.824219 L 25.902344 10.875 C 25.730469 10.703125 25.535156 10.570312 25.3125 10.480469 C 25.085938 10.386719 24.855469 10.339844 24.613281 10.339844 C 24.371094 10.339844 24.140625 10.386719 23.914062 10.480469 C 23.691406 10.570312 23.496094 10.703125 23.324219 10.875 L 23.222656 10.976562 C 23.09375 11.105469 22.988281 11.246094 22.90625 11.402344 C 22.886719 11.433594 22.871094 11.464844 22.855469 11.496094 L 22.820312 11.578125 C 22.808594 11.625 22.796875 11.671875 22.789062 11.71875 C 22.773438 11.773438 22.757812 11.828125 22.746094 11.882812 C 22.742188 11.941406 22.742188 11.996094 22.746094 12.054688 C 22.746094 12.097656 22.746094 12.140625 22.746094 12.183594 L 22.746094 12.222656 C 22.746094 12.285156 22.746094 12.351562 22.746094 12.414062 C 22.742188 12.570312 22.753906 12.722656 22.789062 12.875 Z M 22.789062 12.875 "/></g></g></svg>