<svg xmlns="http://www.w3.org/2000/svg" xmlns:xlink="http://www.w3.org/1999/xlink" width="64" zoomAndPan="magnify" viewBox="0 0 48 48" height="64" preserveAspectRatio="xMidYMid meet" version="1.2"><defs><clipPath id="cd7cf5a0ed"><path d="M 15.417969 29.425781 L 16.886719 29.425781 L 16.886719 30.894531 L 15.417969 30.894531 Z M 15.417969 29.425781 "/></clipPath><clipPath id="c0cd595805"><path d="M 9.1875 9.125 L 38.574219 9.125 L 38.574219 37.777344 L 9.1875 37.777344 Z M 9.1875 9.125 "/></clipPath></defs><g id="7542efcedb"><g clip-rule="nonzero" clip-path="url(#cd7cf5a0ed)"><path style=" stroke:none;fill-rule:nonzero;fill:#31d1e6;fill-opacity:1;" d="M 15.710938 29.425781 C 15.6875 29.425781 15.667969 29.445312 15.667969 29.46875 L 15.667969 29.511719 L 15.585938 29.511719 C 15.492188 29.511719 15.417969 29.585938 15.417969 29.675781 L 15.417969 30.429688 C 15.417969 30.523438 15.492188 30.597656 15.585938 30.597656 L 16.421875 30.597656 C 16.511719 30.597656 16.589844 30.523438 16.589844 30.429688 L 16.589844 29.675781 C 16.589844 29.585938 16.511719 29.511719 16.421875 29.511719 L 16.335938 29.511719 L 16.335938 29.46875 C 16.335938 29.445312 16.316406 29.425781 16.296875 29.425781 C 16.273438 29.425781 16.253906 29.445312 16.253906 29.46875 L 16.253906 29.511719 L 16.042969 29.511719 L 16.042969 29.46875 C 16.042969 29.445312 16.027344 29.425781 16.003906 29.425781 C 15.980469 29.425781 15.960938 29.445312 15.960938 29.46875 L 15.960938 29.511719 L 15.75 29.511719 L 15.75 29.46875 C 15.75 29.445312 15.734375 29.425781 15.710938 29.425781 Z M 15.585938 29.59375 L 15.667969 29.59375 L 15.667969 29.636719 C 15.667969 29.660156 15.6875 29.675781 15.710938 29.675781 C 15.734375 29.675781 15.75 29.660156 15.75 29.636719 L 15.75 29.59375 L 15.960938 29.59375 L 15.960938 29.636719 C 15.960938 29.660156 15.980469 29.675781 16.003906 29.675781 C 16.027344 29.675781 16.042969 29.660156 16.042969 29.636719 L 16.042969 29.59375 L 16.253906 29.59375 L 16.253906 29.636719 C 16.253906 29.660156 16.273438 29.675781 16.296875 29.675781 C 16.316406 29.675781 16.335938 29.660156 16.335938 29.636719 L 16.335938 29.59375 L 16.421875 29.59375 C 16.46875 29.59375 16.503906 29.628906 16.503906 29.675781 L 16.503906 29.761719 L 15.5 29.761719 L 15.5 29.675781 C 15.5 29.628906 15.539062 29.59375 15.585938 29.59375 Z M 15.5 29.84375 L 16.503906 29.84375 L 16.503906 30.429688 C 16.503906 30.476562 16.46875 30.511719 16.421875 30.511719 L 15.585938 30.511719 C 15.539062 30.511719 15.5 30.476562 15.5 30.429688 Z M 15.5 29.84375 "/><path style=" stroke:none;fill-rule:nonzero;fill:#31d1e6;fill-opacity:1;" d="M 16.179688 29.984375 L 15.957031 30.242188 L 15.824219 30.109375 C 15.804688 30.089844 15.78125 30.089844 15.765625 30.109375 C 15.746094 30.125 15.746094 30.152344 15.765625 30.167969 L 15.929688 30.335938 C 15.949219 30.351562 15.976562 30.351562 15.992188 30.332031 L 16.242188 30.039062 C 16.257812 30.019531 16.257812 29.996094 16.238281 29.980469 C 16.21875 29.964844 16.195312 29.964844 16.179688 29.984375 Z M 16.179688 29.984375 "/></g><g clip-rule="nonzero" clip-path="url(#c0cd595805)"><path style=" stroke:none;fill-rule:nonzero;fill:#31d1e6;fill-opacity:1;" d="M 34.25 30.515625 L 32.03125 30.515625 C 30.695312 30.515625 29.609375 31.609375 29.609375 32.941406 L 29.609375 33.785156 L 36.675781 33.785156 L 36.675781 32.941406 C 36.675781 31.609375 35.585938 30.515625 34.25 30.515625 Z M 34.863281 29.726562 C 36.386719 30.019531 37.527344 31.359375 37.527344 32.941406 L 37.527344 33.785156 L 38.140625 33.785156 C 38.375 33.785156 38.5625 33.972656 38.5625 34.210938 L 38.5625 37.242188 C 38.5625 37.480469 38.375 37.667969 38.140625 37.667969 L 9.625 37.667969 C 9.386719 37.667969 9.199219 37.480469 9.199219 37.242188 L 9.199219 34.210938 C 9.199219 33.972656 9.386719 33.785156 9.625 33.785156 L 10.238281 33.785156 L 10.238281 32.941406 C 10.238281 31.359375 11.378906 30.019531 12.902344 29.726562 C 11.777344 28.738281 11.722656 27.003906 12.777344 25.941406 C 13.332031 25.390625 14.113281 25.105469 14.925781 25.199219 L 14.925781 15.074219 C 14.925781 11.800781 17.601562 9.125 20.878906 9.125 L 26.40625 9.125 C 26.640625 9.125 26.828125 9.3125 26.828125 9.546875 L 26.828125 14.832031 L 32.398438 14.832031 C 32.636719 14.832031 32.824219 15.019531 32.824219 15.257812 L 32.824219 25.199219 C 34.378906 25.011719 35.734375 26.226562 35.734375 27.78125 C 35.742188 28.550781 35.402344 29.246094 34.863281 29.726562 Z M 29.050781 31.601562 C 29.488281 30.636719 30.375 29.925781 31.421875 29.726562 C 30.035156 28.5 30.34375 26.273438 31.980469 25.457031 L 31.980469 15.683594 L 26.835938 15.683594 L 26.835938 24.8125 C 26.835938 24.910156 26.804688 25 26.75 25.074219 C 27.296875 26.382812 26.882812 27.890625 25.773438 28.738281 C 27.339844 28.949219 28.632812 30.089844 29.050781 31.601562 Z M 15.726562 30.515625 L 13.507812 30.515625 C 12.179688 30.515625 11.085938 31.609375 11.085938 32.941406 L 11.085938 33.785156 L 18.15625 33.785156 L 18.15625 32.941406 C 18.15625 31.609375 17.0625 30.515625 15.726562 30.515625 Z M 16.339844 29.726562 C 17.390625 29.925781 18.277344 30.636719 18.710938 31.601562 C 19.132812 30.089844 20.421875 28.949219 21.988281 28.738281 C 20.503906 27.597656 20.351562 25.40625 21.679688 24.074219 C 22.855469 22.894531 24.753906 22.851562 25.980469 23.988281 L 25.980469 9.972656 L 20.878906 9.972656 C 18.074219 9.972656 15.777344 12.273438 15.777344 15.074219 L 15.777344 25.449219 C 17.421875 26.273438 17.722656 28.5 16.339844 29.726562 Z M 14.617188 26.03125 C 13.0625 26.03125 12.28125 27.917969 13.378906 29.015625 C 14.476562 30.117188 16.363281 29.332031 16.363281 27.78125 C 16.371094 26.816406 15.589844 26.03125 14.617188 26.03125 Z M 23.882812 24.011719 C 22.632812 24.011719 21.625 25.023438 21.625 26.269531 C 21.625 27.519531 22.632812 28.527344 23.882812 28.527344 C 25.132812 28.527344 26.136719 27.511719 26.136719 26.269531 C 26.136719 25.023438 25.132812 24.011719 23.882812 24.011719 Z M 25.253906 29.550781 L 22.515625 29.550781 C 20.816406 29.550781 19.421875 30.945312 19.421875 32.644531 L 19.421875 33.785156 L 28.339844 33.785156 L 28.339844 32.644531 C 28.339844 30.945312 26.953125 29.550781 25.253906 29.550781 Z M 33.140625 26.03125 C 31.585938 26.03125 30.804688 27.917969 31.902344 29.015625 C 33 30.117188 34.886719 29.332031 34.886719 27.78125 C 34.894531 26.816406 34.109375 26.03125 33.140625 26.03125 Z M 28.71875 18.019531 C 28.480469 18.019531 28.292969 17.828125 28.292969 17.59375 C 28.292969 17.355469 28.480469 17.167969 28.71875 17.167969 L 30.101562 17.167969 C 30.335938 17.167969 30.523438 17.355469 30.523438 17.59375 C 30.523438 17.828125 30.335938 18.019531 30.101562 18.019531 Z M 29.257812 23.144531 C 29.019531 23.144531 28.832031 22.957031 28.832031 22.71875 C 28.832031 22.484375 29.019531 22.296875 29.257812 22.296875 L 30.09375 22.296875 C 30.332031 22.296875 30.519531 22.484375 30.519531 22.71875 C 30.519531 22.957031 30.332031 23.144531 30.09375 23.144531 Z M 28.71875 20.578125 C 28.480469 20.578125 28.292969 20.390625 28.292969 20.152344 C 28.292969 19.917969 28.480469 19.730469 28.71875 19.730469 L 30.101562 19.730469 C 30.335938 19.730469 30.523438 19.917969 30.523438 20.152344 C 30.523438 20.390625 30.335938 20.578125 30.101562 20.578125 Z M 17.6875 25.710938 C 17.449219 25.710938 17.261719 25.523438 17.261719 25.285156 C 17.261719 25.050781 17.449219 24.859375 17.6875 24.859375 L 18.652344 24.859375 C 18.886719 24.859375 19.078125 25.050781 19.078125 25.285156 C 19.078125 25.523438 18.886719 25.710938 18.652344 25.710938 Z M 17.6875 23.15625 C 17.449219 23.15625 17.261719 22.96875 17.261719 22.730469 C 17.261719 22.496094 17.449219 22.308594 17.6875 22.308594 L 18.652344 22.308594 C 18.886719 22.308594 19.078125 22.496094 19.078125 22.730469 C 19.078125 22.96875 18.886719 23.15625 18.652344 23.15625 Z M 17.6875 20.601562 C 17.449219 20.601562 17.261719 20.414062 17.261719 20.175781 C 17.261719 19.941406 17.449219 19.753906 17.6875 19.753906 L 18.652344 19.753906 C 18.886719 19.753906 19.078125 19.941406 19.078125 20.175781 C 19.078125 20.414062 18.886719 20.601562 18.652344 20.601562 Z M 23.117188 20.601562 C 22.878906 20.601562 22.691406 20.414062 22.691406 20.175781 C 22.691406 19.941406 22.878906 19.753906 23.117188 19.753906 L 24.082031 19.753906 C 24.316406 19.753906 24.507812 19.941406 24.507812 20.175781 C 24.507812 20.414062 24.316406 20.601562 24.082031 20.601562 Z M 20.398438 20.601562 C 20.164062 20.601562 19.972656 20.414062 19.972656 20.175781 C 19.972656 19.941406 20.164062 19.753906 20.398438 19.753906 L 21.363281 19.753906 C 21.601562 19.753906 21.789062 19.941406 21.789062 20.175781 C 21.789062 20.414062 21.601562 20.601562 21.363281 20.601562 Z M 17.6875 18.046875 C 17.449219 18.046875 17.261719 17.859375 17.261719 17.625 C 17.261719 17.386719 17.449219 17.199219 17.6875 17.199219 L 18.652344 17.199219 C 18.886719 17.199219 19.078125 17.386719 19.078125 17.625 C 19.078125 17.859375 18.886719 18.046875 18.652344 18.046875 Z M 23.117188 18.046875 C 22.878906 18.046875 22.691406 17.859375 22.691406 17.625 C 22.691406 17.386719 22.878906 17.199219 23.117188 17.199219 L 24.082031 17.199219 C 24.316406 17.199219 24.507812 17.386719 24.507812 17.625 C 24.507812 17.859375 24.316406 18.046875 24.082031 18.046875 Z M 20.398438 18.046875 C 20.164062 18.046875 19.972656 17.859375 19.972656 17.625 C 19.972656 17.386719 20.164062 17.199219 20.398438 17.199219 L 21.363281 17.199219 C 21.601562 17.199219 21.789062 17.386719 21.789062 17.625 C 21.789062 17.859375 21.601562 18.046875 21.363281 18.046875 Z M 17.6875 15.492188 C 17.449219 15.492188 17.261719 15.304688 17.261719 15.070312 C 17.261719 14.832031 17.449219 14.644531 17.6875 14.644531 L 18.652344 14.644531 C 18.886719 14.644531 19.078125 14.832031 19.078125 15.070312 C 19.078125 15.304688 18.886719 15.492188 18.652344 15.492188 Z M 23.117188 15.492188 C 22.878906 15.492188 22.691406 15.304688 22.691406 15.070312 C 22.691406 14.832031 22.878906 14.644531 23.117188 14.644531 L 24.082031 14.644531 C 24.316406 14.644531 24.507812 14.832031 24.507812 15.070312 C 24.507812 15.304688 24.316406 15.492188 24.082031 15.492188 Z M 20.398438 15.492188 C 20.164062 15.492188 19.972656 15.304688 19.972656 15.070312 C 19.972656 14.832031 20.164062 14.644531 20.398438 14.644531 L 21.363281 14.644531 C 21.601562 14.644531 21.789062 14.832031 21.789062 15.070312 C 21.789062 15.304688 21.601562 15.492188 21.363281 15.492188 Z M 23.117188 12.941406 C 22.878906 12.941406 22.691406 12.75 22.691406 12.515625 C 22.691406 12.277344 22.878906 12.089844 23.117188 12.089844 L 24.082031 12.089844 C 24.316406 12.089844 24.507812 12.277344 24.507812 12.515625 C 24.507812 12.75 24.316406 12.941406 24.082031 12.941406 Z M 20.398438 12.941406 C 20.164062 12.941406 19.972656 12.75 19.972656 12.515625 C 19.972656 12.277344 20.164062 12.089844 20.398438 12.089844 L 21.363281 12.089844 C 21.601562 12.089844 21.789062 12.277344 21.789062 12.515625 C 21.789062 12.75 21.601562 12.941406 21.363281 12.941406 Z M 10.050781 36.824219 L 37.714844 36.824219 L 37.714844 34.636719 L 10.050781 34.636719 Z M 10.050781 36.824219 "/></g></g></svg>