<svg xmlns="http://www.w3.org/2000/svg" xmlns:xlink="http://www.w3.org/1999/xlink" width="64" zoomAndPan="magnify" viewBox="0 0 48 48" height="64" preserveAspectRatio="xMidYMid meet" version="1.2"><defs><clipPath id="e84909d125"><path d="M 9.054688 10.636719 L 38.9375 10.636719 L 38.9375 38.445312 L 9.054688 38.445312 Z M 9.054688 10.636719 "/></clipPath><clipPath id="cb8bba017e"><path d="M 29 8.566406 L 33 8.566406 L 33 15 L 29 15 Z M 29 8.566406 "/></clipPath><clipPath id="94b2fcb54d"><path d="M 15 8.566406 L 19 8.566406 L 19 15 L 15 15 Z M 15 8.566406 "/></clipPath><clipPath id="a4eb97ddf3"><path d="M 15.742188 22.363281 L 17.210938 22.363281 L 17.210938 23.832031 L 15.742188 23.832031 Z M 15.742188 22.363281 "/></clipPath><clipPath id="5782f0d215"><path d="M 16 22.363281 L 17 22.363281 L 17 23.832031 L 16 23.832031 Z M 16 22.363281 "/></clipPath></defs><g id="7b6608cd96"><g clip-rule="nonzero" clip-path="url(#e84909d125)"><path style=" stroke:none;fill-rule:nonzero;fill:#31d1e6;fill-opacity:1;" d="M 11.328125 19.003906 L 36.664062 19.003906 L 36.664062 34.757812 C 36.664062 35.542969 36.023438 36.183594 35.234375 36.183594 L 12.753906 36.183594 C 11.96875 36.1875 11.328125 35.546875 11.328125 34.757812 Z M 11.914062 10.910156 C 10.332031 10.910156 9.054688 12.1875 9.054688 13.765625 L 9.054688 35.589844 C 9.054688 37.167969 10.332031 38.445312 11.914062 38.445312 L 36.078125 38.445312 C 37.65625 38.449219 38.9375 37.171875 38.9375 35.589844 L 38.9375 13.765625 C 38.9375 12.1875 37.65625 10.910156 36.078125 10.910156 L 33.324219 10.910156 L 33.324219 13.210938 C 33.316406 14.554688 32.21875 15.632812 30.878906 15.621094 C 29.554688 15.609375 28.480469 14.539062 28.472656 13.210938 L 28.472656 10.910156 L 19.519531 10.910156 L 19.519531 13.210938 C 19.511719 14.554688 18.414062 15.632812 17.070312 15.621094 C 15.75 15.609375 14.675781 14.539062 14.664062 13.210938 L 14.664062 10.910156 L 11.914062 10.910156 "/></g><path style=" stroke:none;fill-rule:nonzero;fill:#31d1e6;fill-opacity:1;" d="M 33.796875 30.710938 L 33.796875 33.265625 L 30.347656 33.265625 L 30.347656 30.710938 L 33.796875 30.710938 "/><path style=" stroke:none;fill-rule:nonzero;fill:#31d1e6;fill-opacity:1;" d="M 28.414062 30.710938 L 28.414062 33.265625 L 24.964844 33.265625 L 24.964844 30.710938 L 28.414062 30.710938 "/><path style=" stroke:none;fill-rule:nonzero;fill:#31d1e6;fill-opacity:1;" d="M 23.027344 30.710938 L 23.027344 33.265625 L 19.578125 33.265625 L 19.578125 30.710938 L 23.027344 30.710938 "/><path style=" stroke:none;fill-rule:nonzero;fill:#31d1e6;fill-opacity:1;" d="M 17.640625 30.710938 L 17.640625 33.265625 L 14.195312 33.265625 L 14.195312 30.710938 L 17.640625 30.710938 "/><path style=" stroke:none;fill-rule:nonzero;fill:#31d1e6;fill-opacity:1;" d="M 33.796875 26.316406 L 33.796875 28.871094 L 30.347656 28.871094 L 30.347656 26.316406 L 33.796875 26.316406 "/><path style=" stroke:none;fill-rule:nonzero;fill:#31d1e6;fill-opacity:1;" d="M 28.414062 26.316406 L 28.414062 28.871094 L 24.964844 28.871094 L 24.964844 26.316406 L 28.414062 26.316406 "/><path style=" stroke:none;fill-rule:nonzero;fill:#31d1e6;fill-opacity:1;" d="M 23.027344 26.316406 L 23.027344 28.871094 L 19.578125 28.871094 L 19.578125 26.316406 L 23.027344 26.316406 "/><path style=" stroke:none;fill-rule:nonzero;fill:#31d1e6;fill-opacity:1;" d="M 17.640625 26.316406 L 17.640625 28.871094 L 14.195312 28.871094 L 14.195312 26.316406 L 17.640625 26.316406 "/><path style=" stroke:none;fill-rule:nonzero;fill:#31d1e6;fill-opacity:1;" d="M 33.796875 21.925781 L 33.796875 24.480469 L 30.347656 24.480469 L 30.347656 21.925781 L 33.796875 21.925781 "/><path style=" stroke:none;fill-rule:nonzero;fill:#31d1e6;fill-opacity:1;" d="M 28.414062 21.925781 L 28.414062 24.480469 L 24.964844 24.480469 L 24.964844 21.925781 L 28.414062 21.925781 "/><path style=" stroke:none;fill-rule:nonzero;fill:#31d1e6;fill-opacity:1;" d="M 23.027344 21.925781 L 23.027344 24.480469 L 19.578125 24.480469 L 19.578125 21.925781 L 23.027344 21.925781 "/><path style=" stroke:none;fill-rule:nonzero;fill:#31d1e6;fill-opacity:1;" d="M 17.640625 21.925781 L 17.640625 24.480469 L 14.195312 24.480469 L 14.195312 21.925781 L 17.640625 21.925781 "/><g clip-rule="nonzero" clip-path="url(#cb8bba017e)"><path style=" stroke:none;fill-rule:nonzero;fill:#31d1e6;fill-opacity:1;" d="M 32.015625 13.183594 L 32.015625 9.71875 C 32.015625 9.101562 31.515625 8.601562 30.894531 8.605469 C 30.28125 8.605469 29.78125 9.101562 29.78125 9.71875 L 29.78125 13.183594 C 29.78125 13.796875 30.285156 14.300781 30.902344 14.296875 C 31.515625 14.296875 32.015625 13.796875 32.015625 13.183594 "/></g><g clip-rule="nonzero" clip-path="url(#94b2fcb54d)"><path style=" stroke:none;fill-rule:nonzero;fill:#31d1e6;fill-opacity:1;" d="M 18.210938 9.71875 C 18.210938 9.101562 17.707031 8.601562 17.09375 8.601562 C 16.476562 8.605469 15.976562 9.101562 15.976562 9.71875 L 15.976562 13.183594 C 15.976562 13.796875 16.476562 14.300781 17.09375 14.300781 C 17.710938 14.296875 18.210938 13.796875 18.210938 13.183594 L 18.210938 9.71875 "/></g><g clip-rule="nonzero" clip-path="url(#a4eb97ddf3)"><path style=" stroke:none;fill-rule:nonzero;fill:#31d1e6;fill-opacity:1;" d="M 16.078125 22.363281 C 16.050781 22.363281 16.03125 22.386719 16.03125 22.414062 L 16.03125 22.460938 L 15.933594 22.460938 C 15.828125 22.460938 15.742188 22.546875 15.742188 22.652344 L 15.742188 23.515625 C 15.742188 23.621094 15.828125 23.707031 15.933594 23.707031 L 16.894531 23.707031 C 17 23.707031 17.085938 23.621094 17.085938 23.515625 L 17.085938 22.652344 C 17.085938 22.546875 17 22.460938 16.894531 22.460938 L 16.796875 22.460938 L 16.796875 22.414062 C 16.796875 22.386719 16.777344 22.363281 16.75 22.363281 C 16.722656 22.363281 16.703125 22.386719 16.703125 22.414062 L 16.703125 22.460938 L 16.460938 22.460938 L 16.460938 22.414062 C 16.460938 22.386719 16.441406 22.363281 16.414062 22.363281 C 16.386719 22.363281 16.367188 22.386719 16.367188 22.414062 L 16.367188 22.460938 L 16.125 22.460938 L 16.125 22.414062 C 16.125 22.386719 16.105469 22.363281 16.078125 22.363281 Z M 15.933594 22.554688 L 16.03125 22.554688 L 16.03125 22.605469 C 16.03125 22.628906 16.050781 22.652344 16.078125 22.652344 C 16.105469 22.652344 16.125 22.628906 16.125 22.605469 L 16.125 22.554688 L 16.367188 22.554688 L 16.367188 22.605469 C 16.367188 22.628906 16.386719 22.652344 16.414062 22.652344 C 16.441406 22.652344 16.460938 22.628906 16.460938 22.605469 L 16.460938 22.554688 L 16.703125 22.554688 L 16.703125 22.605469 C 16.703125 22.628906 16.722656 22.652344 16.75 22.652344 C 16.777344 22.652344 16.796875 22.628906 16.796875 22.605469 L 16.796875 22.554688 L 16.894531 22.554688 C 16.945312 22.554688 16.988281 22.597656 16.988281 22.652344 L 16.988281 22.746094 L 15.835938 22.746094 L 15.835938 22.652344 C 15.835938 22.597656 15.878906 22.554688 15.933594 22.554688 Z M 15.835938 22.84375 L 16.988281 22.84375 L 16.988281 23.515625 C 16.988281 23.570312 16.945312 23.613281 16.894531 23.613281 L 15.933594 23.613281 C 15.878906 23.613281 15.835938 23.570312 15.835938 23.515625 Z M 15.835938 22.84375 "/></g><g clip-rule="nonzero" clip-path="url(#5782f0d215)"><path style=" stroke:none;fill-rule:nonzero;fill:#31d1e6;fill-opacity:1;" d="M 16.617188 23.003906 L 16.363281 23.300781 L 16.207031 23.144531 C 16.1875 23.125 16.160156 23.125 16.140625 23.144531 C 16.121094 23.164062 16.121094 23.195312 16.140625 23.214844 L 16.332031 23.40625 C 16.351562 23.425781 16.382812 23.425781 16.402344 23.402344 L 16.691406 23.066406 C 16.707031 23.046875 16.703125 23.015625 16.683594 23 C 16.664062 22.980469 16.636719 22.984375 16.617188 23.003906 Z M 16.617188 23.003906 "/></g></g></svg>