<svg xmlns="http://www.w3.org/2000/svg" xmlns:xlink="http://www.w3.org/1999/xlink" width="64" zoomAndPan="magnify" viewBox="0 0 48 48" height="64" preserveAspectRatio="xMidYMid meet" version="1.2"><defs><clipPath id="a6c7304d8c"><path d="M 15.417969 29.425781 L 16.886719 29.425781 L 16.886719 30.894531 L 15.417969 30.894531 Z M 15.417969 29.425781 "/></clipPath><clipPath id="9c58c86888"><path d="M 12.59375 9.125 L 35.371094 9.125 L 35.371094 37.777344 L 12.59375 37.777344 Z M 12.59375 9.125 "/></clipPath></defs><g id="2183c7da3f"><g clip-rule="nonzero" clip-path="url(#a6c7304d8c)"><path style=" stroke:none;fill-rule:nonzero;fill:#31d1e6;fill-opacity:1;" d="M 15.710938 29.425781 C 15.6875 29.425781 15.667969 29.445312 15.667969 29.46875 L 15.667969 29.511719 L 15.585938 29.511719 C 15.492188 29.511719 15.417969 29.585938 15.417969 29.675781 L 15.417969 30.429688 C 15.417969 30.523438 15.492188 30.597656 15.585938 30.597656 L 16.421875 30.597656 C 16.511719 30.597656 16.589844 30.523438 16.589844 30.429688 L 16.589844 29.675781 C 16.589844 29.585938 16.511719 29.511719 16.421875 29.511719 L 16.335938 29.511719 L 16.335938 29.46875 C 16.335938 29.445312 16.316406 29.425781 16.296875 29.425781 C 16.273438 29.425781 16.253906 29.445312 16.253906 29.46875 L 16.253906 29.511719 L 16.042969 29.511719 L 16.042969 29.46875 C 16.042969 29.445312 16.027344 29.425781 16.003906 29.425781 C 15.980469 29.425781 15.960938 29.445312 15.960938 29.46875 L 15.960938 29.511719 L 15.75 29.511719 L 15.75 29.46875 C 15.75 29.445312 15.734375 29.425781 15.710938 29.425781 Z M 15.585938 29.59375 L 15.667969 29.59375 L 15.667969 29.636719 C 15.667969 29.660156 15.6875 29.675781 15.710938 29.675781 C 15.734375 29.675781 15.75 29.660156 15.75 29.636719 L 15.75 29.59375 L 15.960938 29.59375 L 15.960938 29.636719 C 15.960938 29.660156 15.980469 29.675781 16.003906 29.675781 C 16.027344 29.675781 16.042969 29.660156 16.042969 29.636719 L 16.042969 29.59375 L 16.253906 29.59375 L 16.253906 29.636719 C 16.253906 29.660156 16.273438 29.675781 16.296875 29.675781 C 16.316406 29.675781 16.335938 29.660156 16.335938 29.636719 L 16.335938 29.59375 L 16.421875 29.59375 C 16.46875 29.59375 16.503906 29.628906 16.503906 29.675781 L 16.503906 29.761719 L 15.5 29.761719 L 15.5 29.675781 C 15.5 29.628906 15.539062 29.59375 15.585938 29.59375 Z M 15.5 29.84375 L 16.503906 29.84375 L 16.503906 30.429688 C 16.503906 30.476562 16.46875 30.511719 16.421875 30.511719 L 15.585938 30.511719 C 15.539062 30.511719 15.5 30.476562 15.5 30.429688 Z M 15.5 29.84375 "/><path style=" stroke:none;fill-rule:nonzero;fill:#31d1e6;fill-opacity:1;" d="M 16.179688 29.984375 L 15.957031 30.242188 L 15.824219 30.109375 C 15.804688 30.089844 15.78125 30.089844 15.765625 30.109375 C 15.746094 30.125 15.746094 30.152344 15.765625 30.167969 L 15.929688 30.335938 C 15.949219 30.351562 15.976562 30.351562 15.992188 30.332031 L 16.242188 30.039062 C 16.257812 30.019531 16.257812 29.996094 16.238281 29.980469 C 16.21875 29.964844 16.195312 29.964844 16.179688 29.984375 Z M 16.179688 29.984375 "/></g><g clip-rule="nonzero" clip-path="url(#9c58c86888)"><path style=" stroke:none;fill-rule:nonzero;fill:#31d1e6;fill-opacity:1;" d="M 15.808594 29.457031 L 12.773438 35.550781 C 12.714844 35.6875 12.714844 35.820312 12.773438 35.957031 C 12.835938 36.089844 12.9375 36.179688 13.078125 36.222656 C 16.539062 37.234375 20.070312 37.75 23.671875 37.777344 L 23.949219 37.777344 C 27.648438 37.777344 31.277344 37.257812 34.828125 36.222656 C 34.96875 36.179688 35.074219 36.089844 35.132812 35.957031 C 35.195312 35.820312 35.195312 35.6875 35.132812 35.550781 L 32.089844 29.457031 C 31.261719 27.789062 29.132812 26.496094 26.558594 26.003906 C 27.390625 25.683594 28.136719 25.226562 28.796875 24.632812 C 29.460938 24.039062 29.996094 23.34375 30.40625 22.550781 C 30.542969 22.578125 30.683594 22.589844 30.824219 22.585938 C 31.195312 22.585938 31.550781 22.515625 31.894531 22.375 C 32.234375 22.234375 32.539062 22.03125 32.800781 21.769531 C 33.0625 21.507812 33.265625 21.207031 33.40625 20.863281 C 33.546875 20.523438 33.621094 20.167969 33.621094 19.796875 L 33.621094 18.636719 C 33.621094 17.867188 33.347656 17.207031 32.800781 16.664062 C 32.5625 16.417969 32.285156 16.222656 31.972656 16.078125 C 31.902344 15.597656 31.789062 15.128906 31.636719 14.671875 C 31.480469 14.210938 31.285156 13.773438 31.050781 13.347656 C 30.820312 12.925781 30.550781 12.523438 30.246094 12.148438 C 29.941406 11.773438 29.605469 11.425781 29.238281 11.113281 C 28.871094 10.796875 28.476562 10.515625 28.0625 10.269531 C 27.644531 10.023438 27.207031 9.816406 26.753906 9.648438 C 26.300781 9.484375 25.835938 9.355469 25.359375 9.273438 C 24.882812 9.1875 24.402344 9.144531 23.917969 9.148438 C 23.433594 9.148438 22.953125 9.195312 22.476562 9.28125 C 22.003906 9.367188 21.539062 9.496094 21.085938 9.667969 C 20.632812 9.839844 20.199219 10.046875 19.78125 10.296875 C 19.367188 10.542969 18.976562 10.828125 18.609375 11.144531 C 18.246094 11.460938 17.914062 11.808594 17.609375 12.1875 C 17.308594 12.566406 17.039062 12.964844 16.808594 13.390625 C 16.578125 13.816406 16.386719 14.257812 16.234375 14.71875 C 16.082031 15.179688 15.972656 15.648438 15.90625 16.125 C 15.433594 16.363281 15.058594 16.703125 14.78125 17.152344 C 14.503906 17.601562 14.367188 18.089844 14.367188 18.617188 L 14.367188 19.765625 C 14.363281 20.328125 14.515625 20.84375 14.820312 21.316406 C 15.128906 21.785156 15.542969 22.132812 16.058594 22.355469 L 16.058594 23.621094 C 16.058594 23.757812 16.105469 23.875 16.203125 23.972656 C 16.300781 24.066406 16.414062 24.117188 16.550781 24.117188 L 18.574219 24.117188 C 19.347656 24.964844 20.273438 25.597656 21.34375 26.015625 C 18.761719 26.503906 16.636719 27.789062 15.808594 29.457031 Z M 32.667969 18.636719 L 32.667969 19.785156 C 32.667969 20.03125 32.621094 20.265625 32.527344 20.492188 C 32.433594 20.714844 32.300781 20.914062 32.125 21.085938 C 31.953125 21.257812 31.753906 21.390625 31.527344 21.484375 C 31.304688 21.578125 31.066406 21.625 30.824219 21.625 C 31.386719 20.019531 31.386719 18.410156 30.824219 16.800781 C 31 16.800781 31.171875 16.828125 31.339844 16.875 L 31.390625 16.875 C 31.671875 16.964844 31.917969 17.113281 32.125 17.320312 C 32.488281 17.683594 32.671875 18.121094 32.667969 18.636719 Z M 23.949219 10.125 C 24.773438 10.125 25.578125 10.265625 26.355469 10.542969 C 27.132812 10.820312 27.839844 11.222656 28.480469 11.742188 C 29.121094 12.265625 29.652344 12.878906 30.082031 13.585938 C 30.507812 14.292969 30.804688 15.050781 30.972656 15.859375 C 30.921875 15.855469 30.875 15.855469 30.824219 15.859375 C 30.683594 15.859375 30.542969 15.871094 30.40625 15.890625 C 30.097656 15.296875 29.71875 14.757812 29.265625 14.269531 C 28.808594 13.78125 28.296875 13.363281 27.730469 13.015625 C 27.160156 12.671875 26.554688 12.40625 25.910156 12.226562 C 25.269531 12.046875 24.617188 11.957031 23.949219 11.957031 C 23.28125 11.957031 22.628906 12.046875 21.984375 12.226562 C 21.34375 12.40625 20.738281 12.671875 20.167969 13.015625 C 19.601562 13.363281 19.089844 13.78125 18.632812 14.269531 C 18.179688 14.757812 17.800781 15.296875 17.492188 15.890625 C 17.378906 15.882812 17.265625 15.882812 17.152344 15.890625 L 16.925781 15.890625 C 17.003906 15.484375 17.117188 15.09375 17.265625 14.707031 C 17.414062 14.324219 17.59375 13.957031 17.804688 13.601562 C 18.015625 13.25 18.253906 12.917969 18.523438 12.605469 C 18.792969 12.292969 19.085938 12.007812 19.402344 11.746094 C 19.71875 11.484375 20.058594 11.253906 20.417969 11.050781 C 20.773438 10.847656 21.148438 10.679688 21.535156 10.539062 C 21.921875 10.402344 22.320312 10.296875 22.722656 10.226562 C 23.128906 10.160156 23.539062 10.125 23.949219 10.125 Z M 15.320312 19.785156 L 15.320312 18.636719 C 15.320312 18.269531 15.421875 17.929688 15.625 17.625 C 15.828125 17.316406 16.097656 17.089844 16.4375 16.945312 L 16.554688 16.90625 C 16.730469 16.84375 16.90625 16.8125 17.089844 16.808594 C 16.527344 18.410156 16.527344 20.015625 17.089844 21.621094 C 16.9375 21.621094 16.789062 21.597656 16.644531 21.550781 C 16.253906 21.4375 15.933594 21.21875 15.6875 20.890625 C 15.441406 20.5625 15.316406 20.195312 15.320312 19.785156 Z M 17.042969 23.144531 L 17.042969 22.574219 L 17.179688 22.574219 C 17.292969 22.578125 17.40625 22.578125 17.523438 22.574219 C 17.625 22.773438 17.738281 22.96875 17.863281 23.160156 Z M 19.042969 23.144531 L 21.222656 23.144531 C 21.273438 22.914062 21.394531 22.722656 21.578125 22.574219 C 21.761719 22.421875 21.972656 22.347656 22.207031 22.339844 L 23.195312 22.339844 C 23.332031 22.339844 23.464844 22.367188 23.589844 22.421875 C 23.714844 22.472656 23.828125 22.546875 23.921875 22.644531 C 24.019531 22.742188 24.09375 22.855469 24.148438 22.980469 C 24.199219 23.109375 24.226562 23.238281 24.226562 23.375 L 24.226562 23.648438 C 24.226562 23.785156 24.199219 23.917969 24.148438 24.042969 C 24.09375 24.167969 24.019531 24.28125 23.921875 24.378906 C 23.828125 24.476562 23.714844 24.550781 23.589844 24.601562 C 23.464844 24.65625 23.332031 24.683594 23.195312 24.683594 L 22.207031 24.683594 C 21.777344 24.683594 21.46875 24.484375 21.28125 24.097656 L 19.953125 24.097656 C 19.605469 23.8125 19.296875 23.496094 19.015625 23.144531 Z M 19.042969 23.144531 "/></g></g></svg>