<svg xmlns="http://www.w3.org/2000/svg" xmlns:xlink="http://www.w3.org/1999/xlink" width="64" zoomAndPan="magnify" viewBox="0 0 48 48" height="64" preserveAspectRatio="xMidYMid meet" version="1.2"><defs><clipPath id="eaf1883ab6"><path d="M 24 32.765625 L 25.46875 32.765625 L 25.46875 34 L 24 34 Z M 24 32.765625 "/></clipPath><clipPath id="a36cd77f88"><path d="M 7.078125 7 L 40.875 7 L 40.875 38.453125 L 7.078125 38.453125 Z M 7.078125 7 "/></clipPath></defs><g id="4e402ff082"><g clip-rule="nonzero" clip-path="url(#eaf1883ab6)"><path style=" stroke:none;fill-rule:nonzero;fill:#31d1e6;fill-opacity:1;" d="M 24.292969 32.765625 C 24.269531 32.765625 24.25 32.785156 24.25 32.808594 L 24.25 32.851562 L 24.167969 32.851562 C 24.074219 32.851562 24 32.925781 24 33.019531 L 24 33.769531 C 24 33.863281 24.074219 33.9375 24.167969 33.9375 L 25.003906 33.9375 C 25.09375 33.9375 25.171875 33.863281 25.171875 33.769531 L 25.171875 33.019531 C 25.171875 32.925781 25.09375 32.851562 25.003906 32.851562 L 24.921875 32.851562 L 24.921875 32.808594 C 24.921875 32.785156 24.902344 32.765625 24.878906 32.765625 C 24.855469 32.765625 24.835938 32.785156 24.835938 32.808594 L 24.835938 32.851562 L 24.628906 32.851562 L 24.628906 32.808594 C 24.628906 32.785156 24.609375 32.765625 24.585938 32.765625 C 24.5625 32.765625 24.542969 32.785156 24.542969 32.808594 L 24.542969 32.851562 L 24.335938 32.851562 L 24.335938 32.808594 C 24.335938 32.785156 24.316406 32.765625 24.292969 32.765625 Z M 24.167969 32.933594 L 24.25 32.933594 L 24.25 32.976562 C 24.25 33 24.269531 33.019531 24.292969 33.019531 C 24.316406 33.019531 24.335938 33 24.335938 32.976562 L 24.335938 32.933594 L 24.542969 32.933594 L 24.542969 32.976562 C 24.542969 33 24.5625 33.019531 24.585938 33.019531 C 24.609375 33.019531 24.628906 33 24.628906 32.976562 L 24.628906 32.933594 L 24.835938 32.933594 L 24.835938 32.976562 C 24.835938 33 24.855469 33.019531 24.878906 33.019531 C 24.902344 33.019531 24.921875 33 24.921875 32.976562 L 24.921875 32.933594 L 25.003906 32.933594 C 25.050781 32.933594 25.085938 32.972656 25.085938 33.019531 L 25.085938 33.101562 L 24.082031 33.101562 L 24.082031 33.019531 C 24.082031 32.972656 24.121094 32.933594 24.167969 32.933594 Z M 24.082031 33.183594 L 25.085938 33.183594 L 25.085938 33.769531 C 25.085938 33.816406 25.050781 33.855469 25.003906 33.855469 L 24.167969 33.855469 C 24.121094 33.855469 24.082031 33.816406 24.082031 33.769531 Z M 24.082031 33.183594 "/></g><path style=" stroke:none;fill-rule:nonzero;fill:#31d1e6;fill-opacity:1;" d="M 24.761719 33.324219 L 24.542969 33.585938 L 24.40625 33.449219 C 24.390625 33.433594 24.363281 33.433594 24.347656 33.449219 C 24.332031 33.464844 24.332031 33.492188 24.347656 33.507812 L 24.515625 33.675781 C 24.53125 33.691406 24.558594 33.691406 24.574219 33.671875 L 24.828125 33.378906 C 24.839844 33.363281 24.839844 33.335938 24.820312 33.320312 C 24.804688 33.304688 24.78125 33.308594 24.761719 33.324219 Z M 24.761719 33.324219 "/><g clip-rule="nonzero" clip-path="url(#a36cd77f88)"><path style=" stroke:none;fill-rule:nonzero;fill:#31d1e6;fill-opacity:1;" d="M 28.304688 27.605469 C 28.625 27.625 28.949219 27.773438 29.289062 28.117188 L 37.441406 36.3125 L 34.121094 36.3125 Z M 20.699219 21.164062 C 20.996094 21.148438 21.34375 21.25 21.691406 21.433594 C 23.078125 22.160156 23.710938 22.65625 24.027344 23.265625 C 24.390625 23.976562 24.457031 25.125 24.457031 27.15625 C 24.453125 27.265625 24.464844 27.363281 24.484375 27.453125 L 21.695312 29.0625 C 20.765625 29.601562 20.144531 29.832031 19.132812 29.882812 C 19.492188 27.144531 19.65625 25.035156 19.792969 22.328125 C 19.828125 21.527344 20.199219 21.1875 20.699219 21.164062 Z M 25.941406 9.691406 L 27.4375 9.742188 C 27.417969 9.777344 27.394531 9.808594 27.375 9.847656 C 26.824219 11.054688 26.082031 11.710938 25.246094 12.136719 C 25.613281 11.503906 25.863281 10.714844 25.941406 9.691406 Z M 33.628906 7.675781 C 33.417969 7.675781 33.246094 7.800781 33.246094 7.957031 L 33.246094 8.050781 L 23.925781 8.292969 C 22.875 8.320312 22.917969 9.59375 23.925781 9.625 L 24.867188 9.65625 C 24.609375 10.953125 24 11.621094 23.285156 12.160156 C 22.871094 12.472656 21.988281 12.933594 21.382812 12.949219 L 18.496094 13.007812 C 17.863281 13.019531 17.378906 13.5625 17.460938 14.191406 C 18 18.25 17.894531 23.328125 17.050781 29.703125 C 17.039062 29.769531 17.039062 29.832031 17.039062 29.894531 L 16.488281 29.894531 C 14.746094 29.894531 14.304688 30.246094 12.949219 31.535156 L 7.433594 36.792969 C 7.070312 37.140625 7.199219 38.066406 7.847656 38.066406 L 40.164062 38.066406 C 40.648438 38.066406 40.886719 37.285156 40.398438 36.792969 L 30.15625 26.5 C 29.628906 25.972656 29.003906 25.75 28.324219 25.769531 C 27.765625 25.789062 27.164062 25.976562 26.546875 26.285156 C 26.535156 24.691406 26.46875 23.441406 25.886719 22.308594 C 25.277344 21.128906 24.089844 20.316406 22.398438 19.5 L 22.261719 14.953125 C 25.375 14.617188 27.953125 12.742188 28.746094 10.605469 C 28.871094 10.277344 28.839844 9.996094 28.734375 9.78125 L 33.246094 9.929688 L 33.246094 10.03125 C 33.246094 10.1875 33.417969 10.3125 33.628906 10.3125 C 33.84375 10.3125 34.015625 10.1875 34.015625 10.03125 L 34.015625 7.957031 C 34.015625 7.800781 33.84375 7.675781 33.628906 7.675781 Z M 33.628906 7.675781 "/></g><path style=" stroke:none;fill-rule:evenodd;fill:#31d1e6;fill-opacity:1;" d="M 21.777344 10.085938 C 21.347656 11.1875 20.089844 11.734375 18.972656 11.308594 C 17.859375 10.886719 17.304688 9.648438 17.734375 8.550781 C 18.167969 7.449219 19.421875 6.902344 20.539062 7.324219 C 21.65625 7.75 22.210938 8.984375 21.777344 10.085938 Z M 21.777344 10.085938 "/></g></svg>